<?xml version="1.0" encoding="UTF-8" standalone="no"?><!DOCTYPE svg PUBLIC "-//W3C//DTD SVG 1.1//EN" "http://www.w3.org/Graphics/SVG/1.1/DTD/svg11.dtd"><svg width="100%" height="100%" viewBox="0 0 477 235" version="1.1" xmlns="http://www.w3.org/2000/svg" xmlns:xlink="http://www.w3.org/1999/xlink" xml:space="preserve" xmlns:serif="http://www.serif.com/" style="fill-rule:evenodd;clip-rule:evenodd;stroke-linejoin:round;stroke-miterlimit:2;"><rect x="0" y="0" width="476.477" height="234.988" style="fill:none;"/><clipPath id="_clip1"><rect x="0" y="0" width="476.477" height="234.988"/></clipPath><g clip-path="url(#_clip1)"><g><path d="M242.219,153.783l-8.846,0l2.241,-58.155c-0.798,-0.147 -1.646,-0.473 -2.546,-0.979c-1.229,-3.79 -1.64,-8.149 -1.175,-13.12l3.957,-0.754l-0.32,-1.12l-1.115,-0.173c0,0 -0.402,-0.486 -0.228,-0.683c0.198,-0.224 1.353,-0.572 1.353,-0.572c0.019,-0.951 0.2,-1.993 1.143,-3.459c0,0 0.236,-17.149 0.421,-24.514c0.007,-0.299 0.691,-0.571 0.691,-0.571c0,0 0.685,0.272 0.693,0.571c0.186,7.364 0.42,24.514 0.42,24.514c0.946,1.466 1.126,2.508 1.144,3.459c0,0 1.156,0.348 1.353,0.572c0.174,0.197 -0.228,0.683 -0.228,0.683l-1.116,0.173l-0.32,1.12l3.958,0.754c0.466,4.971 0.054,9.33 -1.175,13.12c-0.901,0.506 -1.748,0.832 -2.547,0.979l2.242,58.155Z" style="fill:#004191;"/><path d="M242.768,83.592c0.12,0.471 0.116,0.942 0,1.414l-9.945,0c-0.115,-0.472 -0.119,-0.943 0,-1.414l9.945,0Z" style="fill:#00beff;"/><path d="M242.908,86.058c0.124,0.472 0.12,0.943 0,1.414l-10.225,0c-0.119,-0.471 -0.122,-0.942 0,-1.414l10.225,0Z" style="fill:#00beff;"/><path d="M242.628,88.502c0.116,0.471 0.112,0.942 0,1.414l-9.664,0c-0.111,-0.472 -0.115,-0.943 0,-1.414l9.664,0Z" style="fill:#00beff;"/><path d="M242.23,91.005c0.105,0.471 0.101,0.942 0,1.414l-8.838,0c-0.102,-0.472 -0.105,-0.943 0,-1.414l8.838,0Z" style="fill:#00beff;"/><path d="M37.083,147.489l0,6.295l-30.91,0l0,-6.295l30.91,0Zm-29.346,-52.077l0,58.372l-7.738,0l0,-58.372l7.738,0Zm25.257,25.096l0,6.295l-26.821,0l0,-6.295l26.821,0Zm3.688,-25.096l0,6.334l-30.509,0l0,-6.334l30.509,0Z" style="fill:#004191;fill-rule:nonzero;"/><path d="M74.559,143.491l0,-33.355l7.456,0l0,43.378l-7.096,0l-0.36,-10.023Zm1.403,-9.141l3.086,-0.08c0,2.887 -0.301,5.552 -0.902,7.998c-0.601,2.446 -1.571,4.564 -2.906,6.355c-1.337,1.791 -3.087,3.187 -5.252,4.189c-2.165,1.002 -4.797,1.504 -7.898,1.504c-2.111,0 -4.042,-0.307 -5.793,-0.922c-1.751,-0.615 -3.255,-1.563 -4.51,-2.846c-1.257,-1.284 -2.225,-2.954 -2.906,-5.012c-0.682,-2.058 -1.023,-4.53 -1.023,-7.417l0,-27.983l7.417,0l0,28.063c0,1.951 0.221,3.562 0.661,4.831c0.441,1.27 1.043,2.272 1.805,3.007c0.762,0.735 1.617,1.249 2.565,1.543c0.949,0.294 1.931,0.441 2.947,0.441c3.153,0 5.653,-0.607 7.496,-1.824c1.845,-1.216 3.174,-2.86 3.989,-4.931c0.815,-2.071 1.223,-4.377 1.223,-6.916Z" style="fill:#004191;fill-rule:nonzero;"/><path d="M107.09,117.221l0,36.562l-7.417,0l0,-43.378l7.217,0l0.201,6.816Zm13.55,-7.056l-0.04,6.895c-0.615,-0.134 -1.196,-0.22 -1.744,-0.26c-0.548,-0.04 -1.169,-0.06 -1.864,-0.06c-1.711,0 -3.221,0.267 -4.531,0.802c-1.31,0.535 -2.419,1.283 -3.327,2.245c-0.908,0.962 -1.624,2.106 -2.145,3.428c-0.521,1.323 -0.862,2.772 -1.023,4.35l-2.085,1.203c0,-2.619 0.261,-5.078 0.782,-7.377c0.521,-2.299 1.33,-4.337 2.426,-6.112c1.095,-1.778 2.492,-3.168 4.189,-4.171c1.697,-1.002 3.722,-1.503 6.073,-1.503c0.535,0 1.15,0.06 1.845,0.18c0.695,0.121 1.176,0.247 1.443,0.381Z" style="fill:#004191;fill-rule:nonzero;"/><path d="M131.112,131.773l0,-0.921c0,-3.127 0.454,-6.034 1.363,-8.721c0.909,-2.685 2.219,-5.024 3.929,-7.015c1.711,-1.991 3.782,-3.542 6.215,-4.651c2.432,-1.109 5.158,-1.663 8.178,-1.663c3.046,0 5.793,0.554 8.239,1.663c2.446,1.109 4.531,2.659 6.255,4.651c1.724,1.991 3.04,4.33 3.948,7.015c0.909,2.686 1.363,5.593 1.363,8.721l0,0.921c0,3.127 -0.454,6.027 -1.363,8.7c-0.908,2.672 -2.224,5.004 -3.948,6.996c-1.724,1.991 -3.796,3.542 -6.215,4.651c-2.419,1.109 -5.151,1.663 -8.199,1.663c-3.046,0 -5.786,-0.554 -8.218,-1.663c-2.433,-1.109 -4.51,-2.659 -6.234,-4.651c-1.724,-1.991 -3.04,-4.324 -3.949,-6.996c-0.908,-2.673 -1.363,-5.573 -1.363,-8.7Zm7.417,-0.921l0,0.921c0,2.165 0.254,4.203 0.762,6.114c0.508,1.911 1.276,3.601 2.305,5.071c1.029,1.47 2.318,2.626 3.868,3.468c1.55,0.841 3.355,1.262 5.412,1.262c2.031,0 3.816,-0.421 5.353,-1.262c1.536,-0.842 2.812,-1.998 3.829,-3.468c1.015,-1.47 1.784,-3.161 2.305,-5.071c0.521,-1.911 0.781,-3.949 0.781,-6.114l0,-0.921c0,-2.138 -0.26,-4.163 -0.781,-6.074c-0.521,-1.911 -1.297,-3.607 -2.326,-5.091c-1.029,-1.484 -2.312,-2.653 -3.849,-3.508c-1.536,-0.855 -3.333,-1.284 -5.392,-1.284c-2.031,0 -3.816,0.428 -5.352,1.284c-1.537,0.855 -2.82,2.024 -3.849,3.508c-1.029,1.483 -1.797,3.18 -2.305,5.091c-0.508,1.911 -0.762,3.936 -0.762,6.074Z" style="fill:#004191;fill-rule:nonzero;"/><path d="M197.942,144.923l17.199,-49.512l8.379,0l-21.609,58.372l-5.974,0l2.005,-8.86Zm-16.077,-49.512l17.039,49.512l2.124,8.86l-5.973,0l-21.569,-58.372l8.379,0Z" style="fill:#004191;fill-rule:nonzero;"/><path d="M278.358,141.475c0,-1.069 -0.234,-2.065 -0.702,-2.987c-0.467,-0.922 -1.416,-1.764 -2.846,-2.525c-1.43,-0.762 -3.575,-1.423 -6.435,-1.985c-2.406,-0.507 -4.577,-1.109 -6.515,-1.804c-1.938,-0.695 -3.581,-1.537 -4.931,-2.525c-1.35,-0.989 -2.386,-2.152 -3.107,-3.489c-0.722,-1.336 -1.083,-2.9 -1.083,-4.69c0,-1.71 0.381,-3.327 1.142,-4.851c0.762,-1.523 1.845,-2.873 3.248,-4.049c1.403,-1.176 3.093,-2.098 5.071,-2.766c1.977,-0.669 4.182,-1.002 6.615,-1.002c3.475,0 6.441,0.614 8.9,1.844c2.459,1.23 4.343,2.866 5.653,4.912c1.31,2.044 1.964,4.31 1.964,6.795l-7.416,0c0,-1.203 -0.354,-2.372 -1.063,-3.508c-0.709,-1.136 -1.737,-2.078 -3.087,-2.826c-1.35,-0.749 -3,-1.123 -4.951,-1.123c-2.058,0 -3.722,0.315 -4.991,0.943c-1.27,0.628 -2.192,1.423 -2.766,2.385c-0.575,0.962 -0.862,1.977 -0.862,3.046c0,0.802 0.14,1.517 0.421,2.146c0.281,0.628 0.781,1.203 1.503,1.724c0.722,0.521 1.738,1.009 3.047,1.463c1.31,0.454 2.98,0.909 5.011,1.363c3.555,0.802 6.481,1.764 8.78,2.887c2.299,1.122 4.009,2.498 5.132,4.129c1.123,1.631 1.684,3.608 1.684,5.934c0,1.898 -0.395,3.634 -1.182,5.212c-0.789,1.577 -1.925,2.933 -3.408,4.069c-1.483,1.136 -3.248,2.018 -5.292,2.646c-2.044,0.628 -4.337,0.942 -6.875,0.942c-3.822,0 -7.056,-0.682 -9.702,-2.044c-2.646,-1.363 -4.651,-3.127 -6.014,-5.292c-1.363,-2.165 -2.044,-4.45 -2.044,-6.856l7.456,0c0.108,2.031 0.696,3.642 1.765,4.831c1.069,1.19 2.379,2.031 3.929,2.526c1.55,0.494 3.086,0.741 4.611,0.741c2.03,0 3.735,-0.267 5.111,-0.802c1.376,-0.535 2.425,-1.27 3.147,-2.205c0.722,-0.935 1.083,-2.004 1.083,-3.207Z" style="fill:#004191;fill-rule:nonzero;"/><path d="M348.269,147.542l0,5.985l-35.273,0l0,-5.237l17.656,-20.907c2.172,-2.573 3.855,-4.758 5.052,-6.556c1.197,-1.798 2.036,-3.412 2.517,-4.843c0.481,-1.429 0.722,-2.894 0.722,-4.39c0,-1.89 -0.364,-3.603 -1.091,-5.138c-0.728,-1.535 -1.795,-2.763 -3.202,-3.682c-1.407,-0.919 -3.11,-1.377 -5.108,-1.377c-2.394,0 -4.386,0.491 -5.977,1.476c-1.592,0.985 -2.783,2.356 -3.572,4.115c-0.789,1.759 -1.184,3.78 -1.184,6.064l-6.847,0c0,-3.229 0.666,-6.182 1.999,-8.86c1.332,-2.677 3.306,-4.809 5.922,-6.398c2.616,-1.588 5.835,-2.382 9.66,-2.382c3.405,0 6.317,0.636 8.735,1.91c2.418,1.273 4.274,3.058 5.57,5.355c1.296,2.297 1.943,4.981 1.943,8.053c0,1.679 -0.265,3.379 -0.795,5.098c-0.531,1.72 -1.259,3.433 -2.185,5.139c-0.925,1.706 -1.998,3.385 -3.22,5.04c-1.221,1.653 -2.523,3.281 -3.905,4.882l-14.435,16.655l27.019,0Z" style="fill:#004191;fill-rule:nonzero;"/><path d="M389.39,120.296l0,8.741c0,4.699 -0.395,8.662 -1.184,11.891c-0.789,3.229 -1.925,5.827 -3.405,7.795c-1.481,1.969 -3.264,3.393 -5.348,4.272c-2.085,0.88 -4.436,1.319 -7.051,1.319c-2.072,0 -3.985,-0.276 -5.736,-0.827c-1.753,-0.552 -3.325,-1.438 -4.719,-2.658c-1.394,-1.22 -2.585,-2.815 -3.572,-4.783c-0.986,-1.969 -1.74,-4.358 -2.258,-7.167c-0.518,-2.809 -0.776,-6.09 -0.776,-9.843l0,-8.741c0,-4.699 0.4,-8.636 1.203,-11.813c0.802,-3.176 1.943,-5.729 3.424,-7.658c1.481,-1.929 3.263,-3.314 5.348,-4.154c2.085,-0.841 4.423,-1.26 7.014,-1.26c2.097,0 4.028,0.269 5.792,0.807c1.765,0.538 3.337,1.391 4.719,2.559c1.382,1.168 2.56,2.718 3.534,4.647c0.975,1.929 1.722,4.286 2.239,7.067c0.518,2.783 0.777,6.051 0.777,9.804Zm-6.884,9.922l0,-11.143c0,-2.573 -0.142,-4.836 -0.425,-6.792c-0.284,-1.955 -0.698,-3.629 -1.24,-5.02c-0.542,-1.391 -1.228,-2.52 -2.054,-3.386c-0.827,-0.866 -1.776,-1.503 -2.85,-1.91c-1.074,-0.407 -2.276,-0.61 -3.608,-0.61c-1.629,0 -3.072,0.321 -4.331,0.965c-1.259,0.643 -2.313,1.66 -3.164,3.051c-0.852,1.391 -1.499,3.216 -1.943,5.473c-0.444,2.257 -0.666,5.002 -0.666,8.229l0,11.143c0,2.572 0.141,4.843 0.425,6.812c0.283,1.968 0.71,3.668 1.277,5.099c0.568,1.43 1.259,2.604 2.072,3.524c0.815,0.919 1.758,1.595 2.832,2.028c1.073,0.433 2.264,0.649 3.571,0.649c1.678,0 3.146,-0.341 4.404,-1.024c1.259,-0.683 2.314,-1.752 3.164,-3.209c0.852,-1.456 1.487,-3.333 1.907,-5.63c0.419,-2.297 0.629,-5.046 0.629,-8.249Z" style="fill:#004191;fill-rule:nonzero;"/><path d="M433.472,147.542l0,5.985l-35.273,0l0,-5.237l17.656,-20.907c2.172,-2.573 3.855,-4.758 5.052,-6.556c1.197,-1.798 2.036,-3.412 2.517,-4.843c0.481,-1.429 0.722,-2.894 0.722,-4.39c0,-1.89 -0.364,-3.603 -1.091,-5.138c-0.728,-1.535 -1.795,-2.763 -3.202,-3.682c-1.407,-0.919 -3.11,-1.377 -5.108,-1.377c-2.394,0 -4.386,0.491 -5.977,1.476c-1.592,0.985 -2.783,2.356 -3.572,4.115c-0.789,1.759 -1.184,3.78 -1.184,6.064l-6.847,0c0,-3.229 0.666,-6.182 1.999,-8.86c1.332,-2.677 3.306,-4.809 5.922,-6.398c2.615,-1.588 5.835,-2.382 9.66,-2.382c3.405,0 6.317,0.636 8.735,1.91c2.418,1.273 4.274,3.058 5.57,5.355c1.296,2.297 1.943,4.981 1.943,8.053c0,1.679 -0.265,3.379 -0.795,5.098c-0.531,1.72 -1.259,3.433 -2.185,5.139c-0.925,1.706 -1.998,3.385 -3.22,5.04c-1.221,1.653 -2.523,3.281 -3.905,4.882l-14.435,16.655l27.019,0Z" style="fill:#004191;fill-rule:nonzero;"/><path d="M475.592,96.199l0,4.095l-22.317,53.233l-7.218,0l22.282,-51.344l-29.166,0l0,-5.984l36.419,0Z" style="fill:#004191;fill-rule:nonzero;"/><path d="M31.466,222.698c0,-1.44 -0.246,-2.722 -0.737,-3.847c-0.49,-1.126 -1.288,-2.137 -2.392,-3.035c-1.102,-0.898 -2.555,-1.729 -4.358,-2.489c-1.803,-0.762 -4.023,-1.507 -6.659,-2.238c-2.427,-0.668 -4.615,-1.392 -6.563,-2.172c-1.949,-0.78 -3.608,-1.677 -4.98,-2.692c-1.371,-1.015 -2.42,-2.217 -3.145,-3.606c-0.725,-1.389 -1.089,-3.045 -1.089,-4.966c0,-1.833 0.398,-3.489 1.194,-4.964c0.797,-1.477 1.914,-2.736 3.355,-3.78c1.44,-1.043 3.133,-1.846 5.081,-2.407c1.947,-0.563 4.072,-0.843 6.375,-0.843c3.216,0 6.034,0.611 8.453,1.834c2.42,1.224 4.312,2.905 5.674,5.043c1.363,2.138 2.045,4.593 2.045,7.365l-2.666,0c0,-2.263 -0.553,-4.283 -1.659,-6.06c-1.106,-1.777 -2.665,-3.177 -4.677,-4.201c-2.013,-1.024 -4.403,-1.535 -7.17,-1.535c-2.867,0 -5.293,0.437 -7.28,1.314c-1.986,0.877 -3.491,2.034 -4.516,3.474c-1.024,1.44 -1.536,3.005 -1.536,4.694c0,1.223 0.223,2.358 0.669,3.404c0.447,1.046 1.193,2.014 2.237,2.903c1.045,0.89 2.467,1.724 4.266,2.504c1.798,0.779 4.041,1.523 6.728,2.232c2.443,0.646 4.649,1.37 6.619,2.174c1.97,0.803 3.659,1.744 5.069,2.824c1.41,1.078 2.49,2.351 3.241,3.817c0.75,1.466 1.126,3.195 1.126,5.187c0,1.957 -0.418,3.7 -1.254,5.229c-0.835,1.53 -1.998,2.824 -3.489,3.884c-1.491,1.059 -3.229,1.864 -5.213,2.416c-1.985,0.551 -4.126,0.827 -6.424,0.827c-2.079,0 -4.168,-0.254 -6.267,-0.763c-2.099,-0.511 -4.018,-1.324 -5.757,-2.439c-1.739,-1.116 -3.135,-2.586 -4.188,-4.408c-1.053,-1.822 -1.58,-4.047 -1.58,-6.673l2.666,0c0,2.251 0.461,4.138 1.381,5.659c0.921,1.521 2.132,2.733 3.632,3.635c1.499,0.902 3.136,1.552 4.907,1.95c1.772,0.398 3.508,0.597 5.206,0.597c2.698,0 5.074,-0.414 7.127,-1.242c2.052,-0.828 3.657,-1.982 4.812,-3.462c1.157,-1.48 1.736,-3.195 1.736,-5.146Z" style="fill:#004191;fill-rule:nonzero;"/><path d="M71.573,186.316l0,48.012l-2.653,0l0,-48.012l2.653,0Zm17.08,0l0,2.447l-36.805,0l0,-2.447l36.805,0Z" style="fill:#004191;fill-rule:nonzero;"/><path d="M139.932,186.316l2.666,0l0,32.533c0,3.588 -0.732,6.58 -2.195,8.976c-1.463,2.396 -3.449,4.189 -5.956,5.379c-2.507,1.189 -5.319,1.783 -8.436,1.783c-3.148,0 -5.972,-0.594 -8.476,-1.783c-2.503,-1.19 -4.482,-2.982 -5.94,-5.379c-1.457,-2.396 -2.185,-5.388 -2.185,-8.976l0,-32.533l2.659,0l0,32.533c0,2.967 0.607,5.472 1.823,7.515c1.216,2.042 2.875,3.584 4.977,4.624c2.103,1.038 4.483,1.559 7.143,1.559c2.663,0 5.045,-0.52 7.148,-1.559c2.103,-1.039 3.757,-2.581 4.964,-4.624c1.207,-2.043 1.81,-4.548 1.81,-7.515l0,-32.533Z" style="fill:#004191;fill-rule:nonzero;"/><path d="M184.319,186.316l0,48.012l-2.653,0l0,-48.012l2.653,0Zm17.08,0l0,2.447l-36.805,0l0,-2.447l36.805,0Z" style="fill:#004191;fill-rule:nonzero;"/><path d="M240.15,186.316l0,48.012l-2.652,0l0,-48.012l2.652,0Zm17.081,0l0,2.447l-36.805,0l0,-2.447l36.805,0Z" style="fill:#004191;fill-rule:nonzero;"/><path d="M308.762,212.147l0,16.806c-0.522,0.755 -1.472,1.602 -2.849,2.539c-1.376,0.938 -3.194,1.755 -5.452,2.451c-2.257,0.696 -4.991,1.044 -8.203,1.044c-2.765,0 -5.297,-0.506 -7.598,-1.519c-2.301,-1.014 -4.289,-2.47 -5.966,-4.366c-1.676,-1.897 -2.968,-4.16 -3.876,-6.79c-0.907,-2.63 -1.362,-5.551 -1.362,-8.762l0,-7.046c0,-3.141 0.432,-5.986 1.297,-8.534c0.864,-2.549 2.098,-4.744 3.703,-6.588c1.604,-1.844 3.525,-3.258 5.761,-4.246c2.237,-0.986 4.719,-1.48 7.447,-1.48c3.512,0 6.473,0.609 8.884,1.829c2.411,1.22 4.298,2.874 5.658,4.962c1.361,2.087 2.194,4.442 2.501,7.066l-2.672,0c-0.321,-2.02 -1.007,-3.895 -2.056,-5.625c-1.05,-1.73 -2.573,-3.126 -4.568,-4.19c-1.994,-1.063 -4.577,-1.595 -7.747,-1.595c-2.397,0 -4.556,0.446 -6.475,1.339c-1.919,0.893 -3.553,2.151 -4.899,3.775c-1.348,1.623 -2.377,3.555 -3.088,5.799c-0.711,2.243 -1.067,4.716 -1.067,7.421l0,7.112c0,2.823 0.377,5.394 1.132,7.712c0.755,2.317 1.843,4.321 3.265,6.008c1.421,1.688 3.124,2.989 5.107,3.904c1.983,0.916 4.191,1.374 6.625,1.374c2.548,0 4.768,-0.254 6.662,-0.763c1.894,-0.509 3.445,-1.121 4.651,-1.836c1.208,-0.716 2.047,-1.377 2.518,-1.985l0,-13.353l-13.981,0l0,-2.461l16.647,0Z" style="fill:#004191;fill-rule:nonzero;"/><path d="M348.634,188.365l-17.062,45.963l-2.831,0l18.036,-48.012l2.196,0l-0.338,2.049Zm16.191,45.963l-17.07,-45.963l-0.311,-2.049l2.17,0l18.049,48.012l-2.837,0Zm-4.25,-16.445l0,2.447l-24.611,0l0,-2.447l24.611,0Z" style="fill:#004191;fill-rule:nonzero;"/><path d="M388.165,186.316l15.416,0c3.163,0 5.943,0.536 8.341,1.609c2.397,1.073 4.268,2.645 5.612,4.717c1.343,2.073 2.016,4.617 2.016,7.632c0,2.305 -0.494,4.39 -1.482,6.257c-0.987,1.867 -2.325,3.41 -4.011,4.629c-1.687,1.22 -3.595,2.014 -5.727,2.381l-1.169,0.454l-17.7,0l-0.066,-2.442l15.528,0c2.658,0 4.87,-0.538 6.634,-1.615c1.766,-1.076 3.095,-2.478 3.988,-4.204c0.893,-1.727 1.339,-3.547 1.339,-5.461c0,-2.395 -0.53,-4.45 -1.593,-6.162c-1.062,-1.713 -2.589,-3.033 -4.582,-3.959c-1.992,-0.927 -4.368,-1.389 -7.127,-1.389l-12.744,0l0,45.564l-2.672,0l0,-48.012Zm30.586,48.012l-12.869,-21.285l2.963,-0.06l12.74,20.897l0,0.449l-2.835,0Z" style="fill:#004191;fill-rule:nonzero;"/><path d="M457.632,186.316l0,48.012l-2.653,0l0,-48.012l2.653,0Zm17.08,0l0,2.447l-36.805,0l0,-2.447l36.805,0Z" style="fill:#004191;fill-rule:nonzero;"/><path d="M237.793,0.214l2.88,8.859l9.317,-0.004l-7.535,5.478l2.883,8.858l-7.538,-5.473l-7.534,5.478l2.876,-8.86l-7.539,-5.473l9.316,-0.004l2.876,-8.861Z" style="fill:#00beff;"/><path d="M189.656,13.123l2.878,8.859l9.315,0l-7.536,5.476l2.879,8.859l-7.536,-5.475l-7.536,5.475l2.878,-8.859l-7.536,-5.476l9.315,0l2.879,-8.859Z" style="fill:#00beff;"/><path d="M154.405,48.36l2.878,8.86l9.316,0l-7.536,5.475l2.878,8.86l-7.536,-5.476l-7.536,5.476l2.878,-8.86l-7.536,-5.475l9.316,0l2.878,-8.86Z" style="fill:#00beff;"/><path d="M321.442,48.672l2.878,8.859l9.315,0l-7.536,5.475l2.878,8.86l-7.535,-5.475l-7.536,5.475l2.878,-8.86l-7.536,-5.475l9.315,0l2.879,-8.859Z" style="fill:#00beff;"/><path d="M286.323,13.303l2.878,8.859l9.315,0l-7.536,5.475l2.879,8.86l-7.536,-5.475l-7.536,5.475l2.878,-8.86l-7.536,-5.475l9.315,0l2.879,-8.859Z" style="fill:#00beff;"/></g></g></svg>