<?xml version="1.0" encoding="UTF-8" standalone="no"?>
<!DOCTYPE svg PUBLIC "-//W3C//DTD SVG 1.1//EN" "http://www.w3.org/Graphics/SVG/1.1/DTD/svg11.dtd">
<svg width="100%" height="100%" viewBox="0 0 768 135" version="1.1" xmlns="http://www.w3.org/2000/svg" xmlns:xlink="http://www.w3.org/1999/xlink" xml:space="preserve" xmlns:serif="http://www.serif.com/" style="fill-rule:evenodd;clip-rule:evenodd;stroke-linejoin:round;stroke-miterlimit:2;">
    <g transform="matrix(1,0,0,1,-893.197653,-1446.969499)">
        <g transform="matrix(1,0,0,1,-787.919171,1187.36601)">
            <g>
                <g transform="matrix(41.666667,0,0,41.666667,1680.055066,291.280735)">
                    <path d="M0.341,-0.711L0.341,-0L0.199,-0L0.199,-0.711L0.341,-0.711ZM0.517,-0.711L0.517,-0.592L0.025,-0.592L0.025,-0.711L0.517,-0.711Z" style="fill:rgb(0,65,145);fill-rule:nonzero;"/>
                </g>
                <g transform="matrix(41.666667,0,0,41.666667,1702.658419,291.280735)">
                    <path d="M0.184,-0.75L0.184,-0L0.047,-0L0.047,-0.75L0.184,-0.75ZM0.164,-0.282L0.128,-0.281C0.127,-0.318 0.131,-0.353 0.139,-0.384C0.146,-0.415 0.157,-0.442 0.172,-0.465C0.187,-0.489 0.205,-0.506 0.226,-0.519C0.247,-0.532 0.27,-0.538 0.295,-0.538C0.317,-0.538 0.337,-0.534 0.355,-0.527C0.373,-0.519 0.389,-0.508 0.402,-0.492C0.415,-0.476 0.425,-0.455 0.432,-0.428C0.439,-0.402 0.443,-0.371 0.443,-0.333L0.443,-0L0.306,-0L0.306,-0.334C0.306,-0.357 0.303,-0.375 0.299,-0.388C0.294,-0.401 0.287,-0.41 0.278,-0.416C0.269,-0.421 0.258,-0.424 0.244,-0.424C0.229,-0.424 0.217,-0.42 0.207,-0.413C0.197,-0.406 0.188,-0.396 0.182,-0.383C0.176,-0.37 0.171,-0.355 0.169,-0.338C0.166,-0.321 0.164,-0.302 0.164,-0.282Z" style="fill:rgb(0,65,145);fill-rule:nonzero;"/>
                </g>
                <g transform="matrix(41.666667,0,0,41.666667,1723.166232,291.280735)">
                    <path d="M0.264,0.01C0.227,0.01 0.195,0.004 0.168,-0.007C0.14,-0.018 0.116,-0.034 0.097,-0.055C0.078,-0.076 0.063,-0.101 0.053,-0.131C0.043,-0.161 0.038,-0.196 0.038,-0.234L0.038,-0.277C0.038,-0.32 0.043,-0.358 0.053,-0.391C0.063,-0.423 0.076,-0.45 0.094,-0.472C0.112,-0.494 0.134,-0.511 0.161,-0.522C0.187,-0.533 0.216,-0.538 0.249,-0.538C0.283,-0.538 0.312,-0.533 0.337,-0.522C0.362,-0.511 0.383,-0.495 0.4,-0.473C0.417,-0.451 0.429,-0.424 0.438,-0.392C0.446,-0.361 0.45,-0.324 0.45,-0.281L0.45,-0.219L0.096,-0.219L0.096,-0.315L0.316,-0.315L0.316,-0.327C0.316,-0.349 0.313,-0.367 0.309,-0.381C0.304,-0.395 0.297,-0.406 0.287,-0.413C0.278,-0.421 0.265,-0.424 0.249,-0.424C0.235,-0.424 0.223,-0.422 0.214,-0.416C0.204,-0.41 0.197,-0.402 0.191,-0.39C0.186,-0.378 0.182,-0.363 0.179,-0.345C0.177,-0.326 0.175,-0.303 0.175,-0.277L0.175,-0.234C0.175,-0.21 0.178,-0.189 0.182,-0.173C0.186,-0.156 0.192,-0.143 0.201,-0.132C0.209,-0.122 0.219,-0.115 0.231,-0.111C0.243,-0.106 0.257,-0.104 0.273,-0.104C0.297,-0.104 0.319,-0.108 0.338,-0.117C0.357,-0.125 0.374,-0.137 0.388,-0.152L0.443,-0.069C0.433,-0.057 0.42,-0.045 0.403,-0.032C0.387,-0.02 0.367,-0.01 0.344,-0.002C0.32,0.006 0.294,0.01 0.264,0.01Z" style="fill:rgb(0,65,145);fill-rule:nonzero;"/>
                </g>
                <g transform="matrix(41.666667,0,0,41.666667,1752.707247,291.280735)">
                    <path d="M0.465,-0.118L0.465,-0L0.156,-0L0.156,-0.118L0.465,-0.118ZM0.201,-0.711L0.201,-0L0.057,-0L0.057,-0.711L0.201,-0.711ZM0.424,-0.423L0.424,-0.308L0.156,-0.308L0.156,-0.423L0.424,-0.423ZM0.464,-0.711L0.464,-0.592L0.156,-0.592L0.156,-0.711L0.464,-0.711Z" style="fill:rgb(0,65,145);fill-rule:nonzero;"/>
                </g>
                <g transform="matrix(41.666667,0,0,41.666667,1772.808159,291.280735)">
                    <path d="M0.306,-0.127L0.306,-0.528L0.443,-0.528L0.443,-0L0.315,-0L0.306,-0.127ZM0.322,-0.236L0.36,-0.237C0.36,-0.201 0.356,-0.168 0.35,-0.138C0.343,-0.108 0.333,-0.082 0.319,-0.06C0.305,-0.038 0.288,-0.021 0.268,-0.009C0.247,0.004 0.223,0.01 0.195,0.01C0.173,0.01 0.153,0.006 0.135,-0.001C0.117,-0.009 0.102,-0.02 0.089,-0.036C0.076,-0.052 0.066,-0.072 0.058,-0.097C0.051,-0.122 0.048,-0.152 0.048,-0.186L0.048,-0.528L0.185,-0.528L0.185,-0.185C0.185,-0.171 0.186,-0.159 0.188,-0.149C0.191,-0.138 0.194,-0.13 0.199,-0.124C0.204,-0.117 0.209,-0.112 0.215,-0.11C0.222,-0.107 0.229,-0.105 0.236,-0.105C0.258,-0.105 0.275,-0.111 0.287,-0.122C0.3,-0.134 0.309,-0.149 0.314,-0.169C0.319,-0.188 0.322,-0.211 0.322,-0.236Z" style="fill:rgb(0,65,145);fill-rule:nonzero;"/>
                </g>
                <g transform="matrix(41.666667,0,0,41.666667,1793.295626,291.280735)">
                    <path d="M0.187,-0.411L0.187,-0L0.051,-0L0.051,-0.528L0.18,-0.528L0.187,-0.411ZM0.312,-0.532L0.31,-0.396C0.304,-0.397 0.297,-0.398 0.288,-0.399C0.279,-0.4 0.272,-0.4 0.265,-0.4C0.25,-0.4 0.237,-0.398 0.226,-0.393C0.215,-0.388 0.207,-0.381 0.2,-0.372C0.192,-0.362 0.187,-0.351 0.184,-0.337C0.18,-0.324 0.178,-0.308 0.177,-0.291L0.151,-0.301C0.151,-0.335 0.154,-0.367 0.159,-0.396C0.165,-0.425 0.173,-0.45 0.183,-0.471C0.194,-0.492 0.207,-0.509 0.222,-0.52C0.237,-0.532 0.255,-0.538 0.274,-0.538C0.28,-0.538 0.287,-0.538 0.294,-0.536C0.302,-0.535 0.308,-0.534 0.312,-0.532Z" style="fill:rgb(0,65,145);fill-rule:nonzero;"/>
                </g>
                <g transform="matrix(41.666667,0,0,41.666667,1806.35715,291.280735)">
                    <path d="M0.035,-0.246L0.035,-0.282C0.035,-0.323 0.04,-0.36 0.05,-0.392C0.06,-0.423 0.074,-0.45 0.093,-0.472C0.111,-0.494 0.134,-0.51 0.16,-0.521C0.186,-0.532 0.216,-0.538 0.248,-0.538C0.281,-0.538 0.311,-0.532 0.337,-0.521C0.363,-0.51 0.386,-0.494 0.404,-0.472C0.423,-0.45 0.437,-0.423 0.447,-0.392C0.457,-0.36 0.462,-0.323 0.462,-0.282L0.462,-0.246C0.462,-0.205 0.457,-0.168 0.447,-0.137C0.437,-0.105 0.423,-0.078 0.404,-0.056C0.386,-0.034 0.363,-0.018 0.337,-0.007C0.311,0.004 0.281,0.01 0.249,0.01C0.216,0.01 0.187,0.004 0.161,-0.007C0.135,-0.018 0.112,-0.034 0.093,-0.056C0.074,-0.078 0.06,-0.105 0.05,-0.137C0.04,-0.168 0.035,-0.205 0.035,-0.246ZM0.172,-0.282L0.172,-0.246C0.172,-0.222 0.174,-0.2 0.177,-0.183C0.18,-0.165 0.185,-0.15 0.192,-0.138C0.199,-0.126 0.207,-0.118 0.216,-0.112C0.226,-0.107 0.237,-0.104 0.249,-0.104C0.262,-0.104 0.273,-0.107 0.282,-0.112C0.292,-0.118 0.3,-0.126 0.306,-0.138C0.313,-0.15 0.317,-0.165 0.321,-0.183C0.324,-0.2 0.325,-0.222 0.325,-0.246L0.325,-0.282C0.325,-0.306 0.324,-0.327 0.32,-0.345C0.316,-0.362 0.311,-0.377 0.305,-0.389C0.298,-0.401 0.29,-0.409 0.281,-0.415C0.271,-0.421 0.26,-0.424 0.248,-0.424C0.236,-0.424 0.226,-0.421 0.216,-0.415C0.207,-0.409 0.199,-0.401 0.192,-0.389C0.185,-0.377 0.18,-0.362 0.177,-0.345C0.174,-0.327 0.172,-0.306 0.172,-0.282Z" style="fill:rgb(0,65,145);fill-rule:nonzero;"/>
                </g>
                <g transform="matrix(41.666667,0,0,41.666667,1827.088758,291.280735)">
                    <path d="M0.328,-0.528L0.453,-0.528L0.453,0C0.453,0.048 0.443,0.088 0.425,0.118C0.407,0.149 0.381,0.172 0.348,0.186C0.316,0.201 0.277,0.208 0.234,0.208C0.217,0.208 0.199,0.206 0.178,0.201C0.157,0.197 0.138,0.19 0.118,0.18C0.099,0.171 0.083,0.16 0.071,0.147L0.117,0.052C0.13,0.065 0.146,0.076 0.167,0.085C0.188,0.094 0.208,0.098 0.228,0.098C0.247,0.098 0.263,0.095 0.276,0.089C0.289,0.083 0.298,0.073 0.305,0.059C0.312,0.044 0.315,0.025 0.315,0.001L0.315,-0.406L0.328,-0.528ZM0.034,-0.246L0.034,-0.281C0.034,-0.324 0.038,-0.361 0.046,-0.394C0.054,-0.426 0.066,-0.453 0.081,-0.474C0.096,-0.496 0.115,-0.512 0.137,-0.522C0.16,-0.533 0.185,-0.538 0.213,-0.538C0.242,-0.538 0.266,-0.532 0.285,-0.519C0.305,-0.507 0.321,-0.489 0.333,-0.467C0.345,-0.444 0.354,-0.418 0.361,-0.387C0.368,-0.357 0.373,-0.323 0.377,-0.287L0.377,-0.236C0.373,-0.201 0.367,-0.169 0.359,-0.139C0.351,-0.109 0.341,-0.083 0.328,-0.061C0.315,-0.039 0.299,-0.021 0.28,-0.009C0.261,0.004 0.238,0.01 0.212,0.01C0.184,0.01 0.159,0.004 0.137,-0.007C0.115,-0.018 0.097,-0.034 0.081,-0.056C0.066,-0.077 0.054,-0.104 0.046,-0.136C0.038,-0.168 0.034,-0.204 0.034,-0.246ZM0.171,-0.281L0.171,-0.246C0.171,-0.221 0.173,-0.2 0.176,-0.182C0.179,-0.164 0.184,-0.15 0.19,-0.138C0.197,-0.127 0.205,-0.119 0.215,-0.113C0.225,-0.108 0.237,-0.105 0.251,-0.105C0.271,-0.105 0.287,-0.11 0.299,-0.119C0.311,-0.129 0.32,-0.141 0.325,-0.158C0.331,-0.174 0.334,-0.193 0.335,-0.215L0.335,-0.307C0.335,-0.325 0.333,-0.341 0.329,-0.356C0.325,-0.37 0.32,-0.382 0.314,-0.392C0.307,-0.402 0.298,-0.41 0.288,-0.416C0.278,-0.421 0.266,-0.424 0.252,-0.424C0.239,-0.424 0.227,-0.421 0.216,-0.415C0.206,-0.41 0.198,-0.401 0.191,-0.39C0.184,-0.378 0.179,-0.364 0.176,-0.345C0.173,-0.327 0.171,-0.306 0.171,-0.281Z" style="fill:rgb(0,65,145);fill-rule:nonzero;"/>
                </g>
                <g transform="matrix(41.666667,0,0,41.666667,1848.064506,291.280735)">
                    <path d="M0.187,-0.411L0.187,-0L0.051,-0L0.051,-0.528L0.18,-0.528L0.187,-0.411ZM0.312,-0.532L0.31,-0.396C0.304,-0.397 0.297,-0.398 0.288,-0.399C0.279,-0.4 0.272,-0.4 0.265,-0.4C0.25,-0.4 0.237,-0.398 0.226,-0.393C0.215,-0.388 0.207,-0.381 0.2,-0.372C0.192,-0.362 0.187,-0.351 0.184,-0.337C0.18,-0.324 0.178,-0.308 0.177,-0.291L0.151,-0.301C0.151,-0.335 0.154,-0.367 0.159,-0.396C0.165,-0.425 0.173,-0.45 0.183,-0.471C0.194,-0.492 0.207,-0.509 0.222,-0.52C0.237,-0.532 0.255,-0.538 0.274,-0.538C0.28,-0.538 0.287,-0.538 0.294,-0.536C0.302,-0.535 0.308,-0.534 0.312,-0.532Z" style="fill:rgb(0,65,145);fill-rule:nonzero;"/>
                </g>
                <g transform="matrix(41.666667,0,0,41.666667,1861.2481,291.280735)">
                    <path d="M0.284,-0.121L0.284,-0.366C0.284,-0.382 0.282,-0.394 0.278,-0.404C0.274,-0.413 0.269,-0.42 0.262,-0.425C0.254,-0.429 0.245,-0.431 0.235,-0.431C0.223,-0.431 0.213,-0.429 0.205,-0.424C0.198,-0.419 0.192,-0.412 0.188,-0.403C0.184,-0.394 0.182,-0.383 0.182,-0.37L0.045,-0.37C0.045,-0.393 0.05,-0.415 0.059,-0.435C0.068,-0.455 0.08,-0.473 0.097,-0.489C0.114,-0.504 0.135,-0.516 0.159,-0.525C0.183,-0.534 0.209,-0.538 0.239,-0.538C0.274,-0.538 0.305,-0.532 0.333,-0.52C0.36,-0.508 0.382,-0.49 0.397,-0.464C0.413,-0.438 0.421,-0.405 0.421,-0.364L0.421,-0.128C0.421,-0.099 0.423,-0.075 0.426,-0.056C0.429,-0.037 0.434,-0.021 0.44,-0.008L0.44,-0L0.302,-0C0.296,-0.015 0.291,-0.033 0.288,-0.055C0.285,-0.077 0.284,-0.099 0.284,-0.121ZM0.3,-0.323L0.301,-0.241L0.251,-0.241C0.238,-0.241 0.226,-0.238 0.217,-0.234C0.207,-0.23 0.199,-0.224 0.192,-0.217C0.186,-0.209 0.181,-0.2 0.178,-0.19C0.175,-0.18 0.173,-0.169 0.173,-0.158C0.173,-0.145 0.175,-0.134 0.179,-0.125C0.182,-0.117 0.188,-0.11 0.195,-0.105C0.202,-0.101 0.21,-0.098 0.22,-0.098C0.235,-0.098 0.248,-0.102 0.259,-0.108C0.27,-0.114 0.278,-0.122 0.284,-0.13C0.289,-0.139 0.291,-0.147 0.289,-0.155L0.32,-0.101C0.316,-0.089 0.311,-0.077 0.304,-0.064C0.298,-0.051 0.289,-0.039 0.279,-0.028C0.269,-0.017 0.257,-0.008 0.242,-0.001C0.227,0.006 0.21,0.01 0.189,0.01C0.161,0.01 0.135,0.003 0.112,-0.01C0.089,-0.023 0.07,-0.041 0.057,-0.065C0.043,-0.088 0.036,-0.116 0.036,-0.148C0.036,-0.175 0.041,-0.199 0.049,-0.22C0.058,-0.242 0.071,-0.26 0.088,-0.276C0.105,-0.291 0.127,-0.302 0.153,-0.311C0.18,-0.319 0.211,-0.323 0.246,-0.323L0.3,-0.323Z" style="fill:rgb(0,65,145);fill-rule:nonzero;"/>
                </g>
                <g transform="matrix(41.666667,0,0,41.666667,1880.881075,291.280735)">
                    <path d="M0.187,-0.427L0.187,0.203L0.051,0.203L0.051,-0.528L0.177,-0.528L0.187,-0.427ZM0.462,-0.282L0.462,-0.247C0.462,-0.206 0.458,-0.169 0.451,-0.137C0.444,-0.106 0.433,-0.079 0.419,-0.057C0.405,-0.035 0.387,-0.018 0.366,-0.007C0.345,0.004 0.32,0.01 0.292,0.01C0.265,0.01 0.243,0.003 0.224,-0.009C0.205,-0.022 0.189,-0.039 0.176,-0.061C0.163,-0.083 0.152,-0.109 0.144,-0.139C0.137,-0.168 0.131,-0.2 0.127,-0.234L0.127,-0.289C0.13,-0.325 0.136,-0.358 0.144,-0.389C0.151,-0.419 0.162,-0.445 0.175,-0.468C0.188,-0.49 0.204,-0.508 0.223,-0.52C0.242,-0.532 0.265,-0.538 0.291,-0.538C0.32,-0.538 0.345,-0.533 0.366,-0.522C0.387,-0.512 0.405,-0.496 0.419,-0.475C0.434,-0.454 0.444,-0.428 0.451,-0.396C0.458,-0.363 0.462,-0.326 0.462,-0.282ZM0.325,-0.247L0.325,-0.282C0.325,-0.308 0.324,-0.329 0.321,-0.347C0.318,-0.365 0.314,-0.38 0.308,-0.391C0.302,-0.403 0.295,-0.411 0.285,-0.416C0.276,-0.421 0.264,-0.424 0.25,-0.424C0.237,-0.424 0.225,-0.421 0.215,-0.416C0.206,-0.411 0.198,-0.403 0.191,-0.393C0.185,-0.383 0.18,-0.371 0.177,-0.357C0.174,-0.343 0.172,-0.327 0.172,-0.309L0.172,-0.213C0.172,-0.192 0.175,-0.174 0.18,-0.157C0.185,-0.141 0.194,-0.128 0.205,-0.118C0.216,-0.109 0.232,-0.104 0.251,-0.104C0.265,-0.104 0.277,-0.107 0.286,-0.113C0.296,-0.119 0.303,-0.127 0.309,-0.139C0.315,-0.151 0.319,-0.166 0.321,-0.184C0.324,-0.201 0.325,-0.223 0.325,-0.247Z" style="fill:rgb(0,65,145);fill-rule:nonzero;"/>
                </g>
                <g transform="matrix(41.666667,0,0,41.666667,1901.510958,291.280735)">
                    <path d="M0.184,-0.75L0.184,-0L0.047,-0L0.047,-0.75L0.184,-0.75ZM0.164,-0.282L0.128,-0.281C0.127,-0.318 0.131,-0.353 0.139,-0.384C0.146,-0.415 0.157,-0.442 0.172,-0.465C0.187,-0.489 0.205,-0.506 0.226,-0.519C0.247,-0.532 0.27,-0.538 0.295,-0.538C0.317,-0.538 0.337,-0.534 0.355,-0.527C0.373,-0.519 0.389,-0.508 0.402,-0.492C0.415,-0.476 0.425,-0.455 0.432,-0.428C0.439,-0.402 0.443,-0.371 0.443,-0.333L0.443,-0L0.306,-0L0.306,-0.334C0.306,-0.357 0.303,-0.375 0.299,-0.388C0.294,-0.401 0.287,-0.41 0.278,-0.416C0.269,-0.421 0.258,-0.424 0.244,-0.424C0.229,-0.424 0.217,-0.42 0.207,-0.413C0.197,-0.406 0.188,-0.396 0.182,-0.383C0.176,-0.37 0.171,-0.355 0.169,-0.338C0.166,-0.321 0.164,-0.302 0.164,-0.282Z" style="fill:rgb(0,65,145);fill-rule:nonzero;"/>
                </g>
                <g transform="matrix(41.666667,0,0,41.666667,1922.018771,291.280735)">
                    <path d="M0.194,-0.528L0.194,-0L0.057,-0L0.057,-0.528L0.194,-0.528ZM0.051,-0.665C0.051,-0.687 0.057,-0.704 0.071,-0.718C0.085,-0.731 0.103,-0.738 0.126,-0.738C0.149,-0.738 0.167,-0.731 0.18,-0.718C0.193,-0.704 0.2,-0.687 0.2,-0.665C0.2,-0.644 0.193,-0.627 0.18,-0.613C0.167,-0.599 0.149,-0.592 0.126,-0.592C0.103,-0.592 0.085,-0.599 0.071,-0.613C0.057,-0.627 0.051,-0.644 0.051,-0.665Z" style="fill:rgb(0,65,145);fill-rule:nonzero;"/>
                </g>
                <g transform="matrix(41.666667,0,0,41.666667,1932.516818,291.280735)">
                    <path d="M0.242,-0.104C0.254,-0.104 0.265,-0.107 0.275,-0.112C0.284,-0.117 0.291,-0.125 0.296,-0.137C0.301,-0.149 0.303,-0.164 0.303,-0.183L0.432,-0.183C0.432,-0.143 0.424,-0.109 0.407,-0.08C0.39,-0.051 0.368,-0.029 0.339,-0.013C0.311,0.002 0.28,0.01 0.244,0.01C0.209,0.01 0.178,0.004 0.151,-0.007C0.125,-0.019 0.103,-0.035 0.086,-0.057C0.069,-0.079 0.056,-0.106 0.047,-0.137C0.039,-0.169 0.035,-0.204 0.035,-0.245L0.035,-0.283C0.035,-0.324 0.039,-0.36 0.047,-0.391C0.056,-0.423 0.069,-0.449 0.086,-0.471C0.103,-0.493 0.125,-0.51 0.151,-0.521C0.178,-0.532 0.208,-0.538 0.244,-0.538C0.282,-0.538 0.315,-0.53 0.343,-0.514C0.371,-0.499 0.393,-0.475 0.408,-0.445C0.424,-0.414 0.432,-0.376 0.432,-0.331L0.303,-0.331C0.303,-0.352 0.301,-0.368 0.297,-0.382C0.292,-0.396 0.286,-0.406 0.277,-0.413C0.268,-0.421 0.256,-0.424 0.241,-0.424C0.226,-0.424 0.214,-0.421 0.204,-0.415C0.195,-0.409 0.188,-0.399 0.183,-0.388C0.178,-0.376 0.175,-0.361 0.174,-0.343C0.172,-0.326 0.171,-0.306 0.171,-0.283L0.171,-0.245C0.171,-0.221 0.172,-0.201 0.174,-0.183C0.175,-0.166 0.178,-0.151 0.183,-0.139C0.188,-0.127 0.195,-0.119 0.204,-0.113C0.213,-0.107 0.226,-0.104 0.242,-0.104Z" style="fill:rgb(0,65,145);fill-rule:nonzero;"/>
                </g>
                <g transform="matrix(41.666667,0,0,41.666667,1951.681857,291.280735)">
                    <path d="M0.285,-0.143C0.285,-0.152 0.282,-0.16 0.276,-0.167C0.27,-0.174 0.26,-0.182 0.246,-0.189C0.233,-0.197 0.216,-0.206 0.194,-0.215C0.169,-0.225 0.148,-0.235 0.129,-0.245C0.111,-0.255 0.095,-0.267 0.082,-0.28C0.069,-0.292 0.06,-0.307 0.053,-0.323C0.047,-0.339 0.044,-0.358 0.044,-0.379C0.044,-0.401 0.048,-0.422 0.056,-0.441C0.064,-0.46 0.076,-0.477 0.092,-0.491C0.108,-0.506 0.127,-0.517 0.149,-0.526C0.172,-0.534 0.197,-0.538 0.225,-0.538C0.265,-0.538 0.299,-0.531 0.328,-0.517C0.356,-0.504 0.378,-0.484 0.393,-0.459C0.409,-0.435 0.417,-0.406 0.417,-0.373L0.28,-0.373C0.28,-0.385 0.278,-0.395 0.274,-0.404C0.271,-0.414 0.265,-0.421 0.257,-0.426C0.249,-0.431 0.238,-0.434 0.225,-0.434C0.215,-0.434 0.206,-0.432 0.199,-0.428C0.191,-0.424 0.185,-0.418 0.181,-0.411C0.177,-0.404 0.175,-0.395 0.175,-0.386C0.175,-0.379 0.176,-0.373 0.179,-0.367C0.182,-0.362 0.187,-0.356 0.194,-0.351C0.201,-0.346 0.21,-0.34 0.221,-0.335C0.233,-0.329 0.247,-0.323 0.264,-0.316C0.299,-0.303 0.328,-0.289 0.351,-0.274C0.374,-0.259 0.39,-0.241 0.401,-0.221C0.412,-0.201 0.418,-0.177 0.418,-0.147C0.418,-0.124 0.414,-0.103 0.405,-0.084C0.396,-0.064 0.383,-0.048 0.366,-0.034C0.349,-0.02 0.329,-0.009 0.305,-0.001C0.281,0.006 0.255,0.01 0.226,0.01C0.183,0.01 0.147,0.001 0.118,-0.016C0.089,-0.033 0.067,-0.054 0.052,-0.081C0.037,-0.107 0.029,-0.135 0.029,-0.163L0.159,-0.163C0.16,-0.146 0.163,-0.132 0.169,-0.122C0.175,-0.112 0.183,-0.105 0.194,-0.102C0.204,-0.098 0.216,-0.096 0.228,-0.096C0.241,-0.096 0.252,-0.097 0.26,-0.101C0.268,-0.104 0.275,-0.11 0.279,-0.117C0.283,-0.124 0.285,-0.133 0.285,-0.143Z" style="fill:rgb(0,65,145);fill-rule:nonzero;"/>
                </g>
                <g transform="matrix(41.666667,0,0,41.666667,1980.20562,291.280735)">
                    <path d="M0.397,-0.237L0.539,-0.237C0.537,-0.183 0.526,-0.138 0.506,-0.102C0.487,-0.065 0.459,-0.038 0.423,-0.019C0.387,0 0.344,0.01 0.293,0.01C0.254,0.01 0.219,0.003 0.188,-0.01C0.157,-0.023 0.131,-0.043 0.11,-0.069C0.089,-0.094 0.072,-0.126 0.061,-0.164C0.05,-0.202 0.045,-0.245 0.045,-0.295L0.045,-0.416C0.045,-0.465 0.051,-0.509 0.062,-0.547C0.074,-0.585 0.09,-0.617 0.112,-0.643C0.134,-0.669 0.16,-0.688 0.191,-0.701C0.222,-0.714 0.256,-0.721 0.295,-0.721C0.347,-0.721 0.39,-0.711 0.425,-0.692C0.46,-0.673 0.487,-0.644 0.506,-0.607C0.525,-0.57 0.536,-0.524 0.54,-0.47L0.397,-0.47C0.396,-0.504 0.393,-0.531 0.386,-0.55C0.379,-0.569 0.369,-0.583 0.354,-0.591C0.34,-0.599 0.32,-0.603 0.295,-0.603C0.276,-0.603 0.26,-0.599 0.246,-0.593C0.232,-0.586 0.221,-0.576 0.212,-0.561C0.204,-0.546 0.197,-0.527 0.193,-0.503C0.189,-0.48 0.187,-0.451 0.187,-0.417L0.187,-0.295C0.187,-0.261 0.189,-0.233 0.192,-0.209C0.196,-0.185 0.202,-0.166 0.21,-0.151C0.217,-0.136 0.228,-0.126 0.242,-0.119C0.255,-0.112 0.272,-0.108 0.293,-0.108C0.317,-0.108 0.337,-0.112 0.351,-0.119C0.366,-0.126 0.377,-0.139 0.384,-0.158C0.391,-0.176 0.395,-0.203 0.397,-0.237Z" style="fill:rgb(0,65,145);fill-rule:nonzero;"/>
                </g>
                <g transform="matrix(41.666667,0,0,41.666667,2003.948295,291.280735)">
                    <path d="M0.035,-0.246L0.035,-0.282C0.035,-0.323 0.04,-0.36 0.05,-0.392C0.06,-0.423 0.074,-0.45 0.093,-0.472C0.111,-0.494 0.134,-0.51 0.16,-0.521C0.186,-0.532 0.216,-0.538 0.248,-0.538C0.281,-0.538 0.311,-0.532 0.337,-0.521C0.363,-0.51 0.386,-0.494 0.404,-0.472C0.423,-0.45 0.437,-0.423 0.447,-0.392C0.457,-0.36 0.462,-0.323 0.462,-0.282L0.462,-0.246C0.462,-0.205 0.457,-0.168 0.447,-0.137C0.437,-0.105 0.423,-0.078 0.404,-0.056C0.386,-0.034 0.363,-0.018 0.337,-0.007C0.311,0.004 0.281,0.01 0.249,0.01C0.216,0.01 0.187,0.004 0.161,-0.007C0.135,-0.018 0.112,-0.034 0.093,-0.056C0.074,-0.078 0.06,-0.105 0.05,-0.137C0.04,-0.168 0.035,-0.205 0.035,-0.246ZM0.172,-0.282L0.172,-0.246C0.172,-0.222 0.174,-0.2 0.177,-0.183C0.18,-0.165 0.185,-0.15 0.192,-0.138C0.199,-0.126 0.207,-0.118 0.216,-0.112C0.226,-0.107 0.237,-0.104 0.249,-0.104C0.262,-0.104 0.273,-0.107 0.282,-0.112C0.292,-0.118 0.3,-0.126 0.306,-0.138C0.313,-0.15 0.317,-0.165 0.321,-0.183C0.324,-0.2 0.325,-0.222 0.325,-0.246L0.325,-0.282C0.325,-0.306 0.324,-0.327 0.32,-0.345C0.316,-0.362 0.311,-0.377 0.305,-0.389C0.298,-0.401 0.29,-0.409 0.281,-0.415C0.271,-0.421 0.26,-0.424 0.248,-0.424C0.236,-0.424 0.226,-0.421 0.216,-0.415C0.207,-0.409 0.199,-0.401 0.192,-0.389C0.185,-0.377 0.18,-0.362 0.177,-0.345C0.174,-0.327 0.172,-0.306 0.172,-0.282Z" style="fill:rgb(0,65,145);fill-rule:nonzero;"/>
                </g>
                <g transform="matrix(41.666667,0,0,41.666667,2024.679903,291.280735)">
                    <path d="M0.185,-0.416L0.185,-0L0.048,-0L0.048,-0.528L0.176,-0.528L0.185,-0.416ZM0.165,-0.282L0.128,-0.281C0.127,-0.321 0.131,-0.356 0.139,-0.388C0.148,-0.42 0.159,-0.447 0.175,-0.469C0.19,-0.491 0.209,-0.508 0.23,-0.52C0.252,-0.532 0.276,-0.538 0.303,-0.538C0.324,-0.538 0.343,-0.535 0.36,-0.527C0.377,-0.52 0.391,-0.509 0.404,-0.493C0.416,-0.477 0.426,-0.457 0.433,-0.431C0.439,-0.405 0.443,-0.374 0.443,-0.336L0.443,-0L0.306,-0L0.306,-0.337C0.306,-0.36 0.303,-0.377 0.299,-0.39C0.294,-0.402 0.287,-0.411 0.278,-0.416C0.269,-0.421 0.258,-0.424 0.244,-0.424C0.231,-0.424 0.22,-0.42 0.21,-0.413C0.199,-0.406 0.191,-0.396 0.184,-0.383C0.178,-0.37 0.173,-0.355 0.169,-0.338C0.166,-0.321 0.164,-0.302 0.165,-0.282Z" style="fill:rgb(0,65,145);fill-rule:nonzero;"/>
                </g>
                <g transform="matrix(41.666667,0,0,41.666667,2045.187716,291.280735)">
                    <path d="M0.22,-0L0.083,-0L0.083,-0.574C0.083,-0.615 0.09,-0.649 0.104,-0.676C0.118,-0.704 0.138,-0.724 0.163,-0.739C0.189,-0.753 0.219,-0.76 0.254,-0.76C0.266,-0.76 0.277,-0.759 0.287,-0.758C0.297,-0.756 0.307,-0.753 0.317,-0.75L0.316,-0.642C0.311,-0.643 0.306,-0.644 0.3,-0.645C0.294,-0.645 0.288,-0.646 0.282,-0.646C0.269,-0.646 0.258,-0.643 0.248,-0.637C0.239,-0.632 0.232,-0.624 0.227,-0.613C0.222,-0.603 0.22,-0.59 0.22,-0.574L0.22,-0ZM0.303,-0.528L0.303,-0.425L0.019,-0.425L0.019,-0.528L0.303,-0.528Z" style="fill:rgb(0,65,145);fill-rule:nonzero;"/>
                </g>
                <g transform="matrix(41.666667,0,0,41.666667,2058.350965,291.280735)">
                    <path d="M0.264,0.01C0.227,0.01 0.195,0.004 0.168,-0.007C0.14,-0.018 0.116,-0.034 0.097,-0.055C0.078,-0.076 0.063,-0.101 0.053,-0.131C0.043,-0.161 0.038,-0.196 0.038,-0.234L0.038,-0.277C0.038,-0.32 0.043,-0.358 0.053,-0.391C0.063,-0.423 0.076,-0.45 0.094,-0.472C0.112,-0.494 0.134,-0.511 0.161,-0.522C0.187,-0.533 0.216,-0.538 0.249,-0.538C0.283,-0.538 0.312,-0.533 0.337,-0.522C0.362,-0.511 0.383,-0.495 0.4,-0.473C0.417,-0.451 0.429,-0.424 0.438,-0.392C0.446,-0.361 0.45,-0.324 0.45,-0.281L0.45,-0.219L0.096,-0.219L0.096,-0.315L0.316,-0.315L0.316,-0.327C0.316,-0.349 0.313,-0.367 0.309,-0.381C0.304,-0.395 0.297,-0.406 0.287,-0.413C0.278,-0.421 0.265,-0.424 0.249,-0.424C0.235,-0.424 0.223,-0.422 0.214,-0.416C0.204,-0.41 0.197,-0.402 0.191,-0.39C0.186,-0.378 0.182,-0.363 0.179,-0.345C0.177,-0.326 0.175,-0.303 0.175,-0.277L0.175,-0.234C0.175,-0.21 0.178,-0.189 0.182,-0.173C0.186,-0.156 0.192,-0.143 0.201,-0.132C0.209,-0.122 0.219,-0.115 0.231,-0.111C0.243,-0.106 0.257,-0.104 0.273,-0.104C0.297,-0.104 0.319,-0.108 0.338,-0.117C0.357,-0.125 0.374,-0.137 0.388,-0.152L0.443,-0.069C0.433,-0.057 0.42,-0.045 0.403,-0.032C0.387,-0.02 0.367,-0.01 0.344,-0.002C0.32,0.006 0.294,0.01 0.264,0.01Z" style="fill:rgb(0,65,145);fill-rule:nonzero;"/>
                </g>
                <g transform="matrix(41.666667,0,0,41.666667,2078.289116,291.280735)">
                    <path d="M0.187,-0.411L0.187,-0L0.051,-0L0.051,-0.528L0.18,-0.528L0.187,-0.411ZM0.312,-0.532L0.31,-0.396C0.304,-0.397 0.297,-0.398 0.288,-0.399C0.279,-0.4 0.272,-0.4 0.265,-0.4C0.25,-0.4 0.237,-0.398 0.226,-0.393C0.215,-0.388 0.207,-0.381 0.2,-0.372C0.192,-0.362 0.187,-0.351 0.184,-0.337C0.18,-0.324 0.178,-0.308 0.177,-0.291L0.151,-0.301C0.151,-0.335 0.154,-0.367 0.159,-0.396C0.165,-0.425 0.173,-0.45 0.183,-0.471C0.194,-0.492 0.207,-0.509 0.222,-0.52C0.237,-0.532 0.255,-0.538 0.274,-0.538C0.28,-0.538 0.287,-0.538 0.294,-0.536C0.302,-0.535 0.308,-0.534 0.312,-0.532Z" style="fill:rgb(0,65,145);fill-rule:nonzero;"/>
                </g>
                <g transform="matrix(41.666667,0,0,41.666667,2091.696505,291.280735)">
                    <path d="M0.264,0.01C0.227,0.01 0.195,0.004 0.168,-0.007C0.14,-0.018 0.116,-0.034 0.097,-0.055C0.078,-0.076 0.063,-0.101 0.053,-0.131C0.043,-0.161 0.038,-0.196 0.038,-0.234L0.038,-0.277C0.038,-0.32 0.043,-0.358 0.053,-0.391C0.063,-0.423 0.076,-0.45 0.094,-0.472C0.112,-0.494 0.134,-0.511 0.161,-0.522C0.187,-0.533 0.216,-0.538 0.249,-0.538C0.283,-0.538 0.312,-0.533 0.337,-0.522C0.362,-0.511 0.383,-0.495 0.4,-0.473C0.417,-0.451 0.429,-0.424 0.438,-0.392C0.446,-0.361 0.45,-0.324 0.45,-0.281L0.45,-0.219L0.096,-0.219L0.096,-0.315L0.316,-0.315L0.316,-0.327C0.316,-0.349 0.313,-0.367 0.309,-0.381C0.304,-0.395 0.297,-0.406 0.287,-0.413C0.278,-0.421 0.265,-0.424 0.249,-0.424C0.235,-0.424 0.223,-0.422 0.214,-0.416C0.204,-0.41 0.197,-0.402 0.191,-0.39C0.186,-0.378 0.182,-0.363 0.179,-0.345C0.177,-0.326 0.175,-0.303 0.175,-0.277L0.175,-0.234C0.175,-0.21 0.178,-0.189 0.182,-0.173C0.186,-0.156 0.192,-0.143 0.201,-0.132C0.209,-0.122 0.219,-0.115 0.231,-0.111C0.243,-0.106 0.257,-0.104 0.273,-0.104C0.297,-0.104 0.319,-0.108 0.338,-0.117C0.357,-0.125 0.374,-0.137 0.388,-0.152L0.443,-0.069C0.433,-0.057 0.42,-0.045 0.403,-0.032C0.387,-0.02 0.367,-0.01 0.344,-0.002C0.32,0.006 0.294,0.01 0.264,0.01Z" style="fill:rgb(0,65,145);fill-rule:nonzero;"/>
                </g>
                <g transform="matrix(41.666667,0,0,41.666667,2111.634656,291.280735)">
                    <path d="M0.185,-0.416L0.185,-0L0.048,-0L0.048,-0.528L0.176,-0.528L0.185,-0.416ZM0.165,-0.282L0.128,-0.281C0.127,-0.321 0.131,-0.356 0.139,-0.388C0.148,-0.42 0.159,-0.447 0.175,-0.469C0.19,-0.491 0.209,-0.508 0.23,-0.52C0.252,-0.532 0.276,-0.538 0.303,-0.538C0.324,-0.538 0.343,-0.535 0.36,-0.527C0.377,-0.52 0.391,-0.509 0.404,-0.493C0.416,-0.477 0.426,-0.457 0.433,-0.431C0.439,-0.405 0.443,-0.374 0.443,-0.336L0.443,-0L0.306,-0L0.306,-0.337C0.306,-0.36 0.303,-0.377 0.299,-0.39C0.294,-0.402 0.287,-0.411 0.278,-0.416C0.269,-0.421 0.258,-0.424 0.244,-0.424C0.231,-0.424 0.22,-0.42 0.21,-0.413C0.199,-0.406 0.191,-0.396 0.184,-0.383C0.178,-0.37 0.173,-0.355 0.169,-0.338C0.166,-0.321 0.164,-0.302 0.165,-0.282Z" style="fill:rgb(0,65,145);fill-rule:nonzero;"/>
                </g>
                <g transform="matrix(41.666667,0,0,41.666667,2132.142469,291.280735)">
                    <path d="M0.242,-0.104C0.254,-0.104 0.265,-0.107 0.275,-0.112C0.284,-0.117 0.291,-0.125 0.296,-0.137C0.301,-0.149 0.303,-0.164 0.303,-0.183L0.432,-0.183C0.432,-0.143 0.424,-0.109 0.407,-0.08C0.39,-0.051 0.368,-0.029 0.339,-0.013C0.311,0.002 0.28,0.01 0.244,0.01C0.209,0.01 0.178,0.004 0.151,-0.007C0.125,-0.019 0.103,-0.035 0.086,-0.057C0.069,-0.079 0.056,-0.106 0.047,-0.137C0.039,-0.169 0.035,-0.204 0.035,-0.245L0.035,-0.283C0.035,-0.324 0.039,-0.36 0.047,-0.391C0.056,-0.423 0.069,-0.449 0.086,-0.471C0.103,-0.493 0.125,-0.51 0.151,-0.521C0.178,-0.532 0.208,-0.538 0.244,-0.538C0.282,-0.538 0.315,-0.53 0.343,-0.514C0.371,-0.499 0.393,-0.475 0.408,-0.445C0.424,-0.414 0.432,-0.376 0.432,-0.331L0.303,-0.331C0.303,-0.352 0.301,-0.368 0.297,-0.382C0.292,-0.396 0.286,-0.406 0.277,-0.413C0.268,-0.421 0.256,-0.424 0.241,-0.424C0.226,-0.424 0.214,-0.421 0.204,-0.415C0.195,-0.409 0.188,-0.399 0.183,-0.388C0.178,-0.376 0.175,-0.361 0.174,-0.343C0.172,-0.326 0.171,-0.306 0.171,-0.283L0.171,-0.245C0.171,-0.221 0.172,-0.201 0.174,-0.183C0.175,-0.166 0.178,-0.151 0.183,-0.139C0.188,-0.127 0.195,-0.119 0.204,-0.113C0.213,-0.107 0.226,-0.104 0.242,-0.104Z" style="fill:rgb(0,65,145);fill-rule:nonzero;"/>
                </g>
                <g transform="matrix(41.666667,0,0,41.666667,2151.307508,291.280735)">
                    <path d="M0.264,0.01C0.227,0.01 0.195,0.004 0.168,-0.007C0.14,-0.018 0.116,-0.034 0.097,-0.055C0.078,-0.076 0.063,-0.101 0.053,-0.131C0.043,-0.161 0.038,-0.196 0.038,-0.234L0.038,-0.277C0.038,-0.32 0.043,-0.358 0.053,-0.391C0.063,-0.423 0.076,-0.45 0.094,-0.472C0.112,-0.494 0.134,-0.511 0.161,-0.522C0.187,-0.533 0.216,-0.538 0.249,-0.538C0.283,-0.538 0.312,-0.533 0.337,-0.522C0.362,-0.511 0.383,-0.495 0.4,-0.473C0.417,-0.451 0.429,-0.424 0.438,-0.392C0.446,-0.361 0.45,-0.324 0.45,-0.281L0.45,-0.219L0.096,-0.219L0.096,-0.315L0.316,-0.315L0.316,-0.327C0.316,-0.349 0.313,-0.367 0.309,-0.381C0.304,-0.395 0.297,-0.406 0.287,-0.413C0.278,-0.421 0.265,-0.424 0.249,-0.424C0.235,-0.424 0.223,-0.422 0.214,-0.416C0.204,-0.41 0.197,-0.402 0.191,-0.39C0.186,-0.378 0.182,-0.363 0.179,-0.345C0.177,-0.326 0.175,-0.303 0.175,-0.277L0.175,-0.234C0.175,-0.21 0.178,-0.189 0.182,-0.173C0.186,-0.156 0.192,-0.143 0.201,-0.132C0.209,-0.122 0.219,-0.115 0.231,-0.111C0.243,-0.106 0.257,-0.104 0.273,-0.104C0.297,-0.104 0.319,-0.108 0.338,-0.117C0.357,-0.125 0.374,-0.137 0.388,-0.152L0.443,-0.069C0.433,-0.057 0.42,-0.045 0.403,-0.032C0.387,-0.02 0.367,-0.01 0.344,-0.002C0.32,0.006 0.294,0.01 0.264,0.01Z" style="fill:rgb(0,65,145);fill-rule:nonzero;"/>
                </g>
                <g transform="matrix(41.666667,0,0,41.666667,2180.848523,291.280735)">
                    <path d="M0.035,-0.246L0.035,-0.282C0.035,-0.323 0.04,-0.36 0.05,-0.392C0.06,-0.423 0.074,-0.45 0.093,-0.472C0.111,-0.494 0.134,-0.51 0.16,-0.521C0.186,-0.532 0.216,-0.538 0.248,-0.538C0.281,-0.538 0.311,-0.532 0.337,-0.521C0.363,-0.51 0.386,-0.494 0.404,-0.472C0.423,-0.45 0.437,-0.423 0.447,-0.392C0.457,-0.36 0.462,-0.323 0.462,-0.282L0.462,-0.246C0.462,-0.205 0.457,-0.168 0.447,-0.137C0.437,-0.105 0.423,-0.078 0.404,-0.056C0.386,-0.034 0.363,-0.018 0.337,-0.007C0.311,0.004 0.281,0.01 0.249,0.01C0.216,0.01 0.187,0.004 0.161,-0.007C0.135,-0.018 0.112,-0.034 0.093,-0.056C0.074,-0.078 0.06,-0.105 0.05,-0.137C0.04,-0.168 0.035,-0.205 0.035,-0.246ZM0.172,-0.282L0.172,-0.246C0.172,-0.222 0.174,-0.2 0.177,-0.183C0.18,-0.165 0.185,-0.15 0.192,-0.138C0.199,-0.126 0.207,-0.118 0.216,-0.112C0.226,-0.107 0.237,-0.104 0.249,-0.104C0.262,-0.104 0.273,-0.107 0.282,-0.112C0.292,-0.118 0.3,-0.126 0.306,-0.138C0.313,-0.15 0.317,-0.165 0.321,-0.183C0.324,-0.2 0.325,-0.222 0.325,-0.246L0.325,-0.282C0.325,-0.306 0.324,-0.327 0.32,-0.345C0.316,-0.362 0.311,-0.377 0.305,-0.389C0.298,-0.401 0.29,-0.409 0.281,-0.415C0.271,-0.421 0.26,-0.424 0.248,-0.424C0.236,-0.424 0.226,-0.421 0.216,-0.415C0.207,-0.409 0.199,-0.401 0.192,-0.389C0.185,-0.377 0.18,-0.362 0.177,-0.345C0.174,-0.327 0.172,-0.306 0.172,-0.282Z" style="fill:rgb(0,65,145);fill-rule:nonzero;"/>
                </g>
                <g transform="matrix(41.666667,0,0,41.666667,2201.580131,291.280735)">
                    <path d="M0.185,-0.416L0.185,-0L0.048,-0L0.048,-0.528L0.176,-0.528L0.185,-0.416ZM0.165,-0.282L0.128,-0.281C0.127,-0.321 0.131,-0.356 0.139,-0.388C0.148,-0.42 0.159,-0.447 0.175,-0.469C0.19,-0.491 0.209,-0.508 0.23,-0.52C0.252,-0.532 0.276,-0.538 0.303,-0.538C0.324,-0.538 0.343,-0.535 0.36,-0.527C0.377,-0.52 0.391,-0.509 0.404,-0.493C0.416,-0.477 0.426,-0.457 0.433,-0.431C0.439,-0.405 0.443,-0.374 0.443,-0.336L0.443,-0L0.306,-0L0.306,-0.337C0.306,-0.36 0.303,-0.377 0.299,-0.39C0.294,-0.402 0.287,-0.411 0.278,-0.416C0.269,-0.421 0.258,-0.424 0.244,-0.424C0.231,-0.424 0.22,-0.42 0.21,-0.413C0.199,-0.406 0.191,-0.396 0.184,-0.383C0.178,-0.37 0.173,-0.355 0.169,-0.338C0.166,-0.321 0.164,-0.302 0.165,-0.282Z" style="fill:rgb(0,65,145);fill-rule:nonzero;"/>
                </g>
                <g transform="matrix(41.666667,0,0,41.666667,2231.690808,291.280735)">
                    <path d="M0.279,-0.152L0.414,-0.711L0.568,-0.711L0.362,-0L0.258,-0L0.279,-0.152ZM0.164,-0.711L0.298,-0.152L0.32,-0L0.215,-0L0.011,-0.711L0.164,-0.711Z" style="fill:rgb(0,65,145);fill-rule:nonzero;"/>
                </g>
                <g transform="matrix(41.666667,0,0,41.666667,2255.759005,291.280735)">
                    <path d="M0.194,-0.528L0.194,-0L0.057,-0L0.057,-0.528L0.194,-0.528ZM0.051,-0.665C0.051,-0.687 0.057,-0.704 0.071,-0.718C0.085,-0.731 0.103,-0.738 0.126,-0.738C0.149,-0.738 0.167,-0.731 0.18,-0.718C0.193,-0.704 0.2,-0.687 0.2,-0.665C0.2,-0.644 0.193,-0.627 0.18,-0.613C0.167,-0.599 0.149,-0.592 0.126,-0.592C0.103,-0.592 0.085,-0.599 0.071,-0.613C0.057,-0.627 0.051,-0.644 0.051,-0.665Z" style="fill:rgb(0,65,145);fill-rule:nonzero;"/>
                </g>
                <g transform="matrix(41.666667,0,0,41.666667,2266.257052,291.280735)">
                    <path d="M0.285,-0.143C0.285,-0.152 0.282,-0.16 0.276,-0.167C0.27,-0.174 0.26,-0.182 0.246,-0.189C0.233,-0.197 0.216,-0.206 0.194,-0.215C0.169,-0.225 0.148,-0.235 0.129,-0.245C0.111,-0.255 0.095,-0.267 0.082,-0.28C0.069,-0.292 0.06,-0.307 0.053,-0.323C0.047,-0.339 0.044,-0.358 0.044,-0.379C0.044,-0.401 0.048,-0.422 0.056,-0.441C0.064,-0.46 0.076,-0.477 0.092,-0.491C0.108,-0.506 0.127,-0.517 0.149,-0.526C0.172,-0.534 0.197,-0.538 0.225,-0.538C0.265,-0.538 0.299,-0.531 0.328,-0.517C0.356,-0.504 0.378,-0.484 0.393,-0.459C0.409,-0.435 0.417,-0.406 0.417,-0.373L0.28,-0.373C0.28,-0.385 0.278,-0.395 0.274,-0.404C0.271,-0.414 0.265,-0.421 0.257,-0.426C0.249,-0.431 0.238,-0.434 0.225,-0.434C0.215,-0.434 0.206,-0.432 0.199,-0.428C0.191,-0.424 0.185,-0.418 0.181,-0.411C0.177,-0.404 0.175,-0.395 0.175,-0.386C0.175,-0.379 0.176,-0.373 0.179,-0.367C0.182,-0.362 0.187,-0.356 0.194,-0.351C0.201,-0.346 0.21,-0.34 0.221,-0.335C0.233,-0.329 0.247,-0.323 0.264,-0.316C0.299,-0.303 0.328,-0.289 0.351,-0.274C0.374,-0.259 0.39,-0.241 0.401,-0.221C0.412,-0.201 0.418,-0.177 0.418,-0.147C0.418,-0.124 0.414,-0.103 0.405,-0.084C0.396,-0.064 0.383,-0.048 0.366,-0.034C0.349,-0.02 0.329,-0.009 0.305,-0.001C0.281,0.006 0.255,0.01 0.226,0.01C0.183,0.01 0.147,0.001 0.118,-0.016C0.089,-0.033 0.067,-0.054 0.052,-0.081C0.037,-0.107 0.029,-0.135 0.029,-0.163L0.159,-0.163C0.16,-0.146 0.163,-0.132 0.169,-0.122C0.175,-0.112 0.183,-0.105 0.194,-0.102C0.204,-0.098 0.216,-0.096 0.228,-0.096C0.241,-0.096 0.252,-0.097 0.26,-0.101C0.268,-0.104 0.275,-0.11 0.279,-0.117C0.283,-0.124 0.285,-0.133 0.285,-0.143Z" style="fill:rgb(0,65,145);fill-rule:nonzero;"/>
                </g>
                <g transform="matrix(41.666667,0,0,41.666667,2285.17795,291.280735)">
                    <path d="M0.306,-0.127L0.306,-0.528L0.443,-0.528L0.443,-0L0.315,-0L0.306,-0.127ZM0.322,-0.236L0.36,-0.237C0.36,-0.201 0.356,-0.168 0.35,-0.138C0.343,-0.108 0.333,-0.082 0.319,-0.06C0.305,-0.038 0.288,-0.021 0.268,-0.009C0.247,0.004 0.223,0.01 0.195,0.01C0.173,0.01 0.153,0.006 0.135,-0.001C0.117,-0.009 0.102,-0.02 0.089,-0.036C0.076,-0.052 0.066,-0.072 0.058,-0.097C0.051,-0.122 0.048,-0.152 0.048,-0.186L0.048,-0.528L0.185,-0.528L0.185,-0.185C0.185,-0.171 0.186,-0.159 0.188,-0.149C0.191,-0.138 0.194,-0.13 0.199,-0.124C0.204,-0.117 0.209,-0.112 0.215,-0.11C0.222,-0.107 0.229,-0.105 0.236,-0.105C0.258,-0.105 0.275,-0.111 0.287,-0.122C0.3,-0.134 0.309,-0.149 0.314,-0.169C0.319,-0.188 0.322,-0.211 0.322,-0.236Z" style="fill:rgb(0,65,145);fill-rule:nonzero;"/>
                </g>
                <g transform="matrix(41.666667,0,0,41.666667,2305.665418,291.280735)">
                    <path d="M0.284,-0.121L0.284,-0.366C0.284,-0.382 0.282,-0.394 0.278,-0.404C0.274,-0.413 0.269,-0.42 0.262,-0.425C0.254,-0.429 0.245,-0.431 0.235,-0.431C0.223,-0.431 0.213,-0.429 0.205,-0.424C0.198,-0.419 0.192,-0.412 0.188,-0.403C0.184,-0.394 0.182,-0.383 0.182,-0.37L0.045,-0.37C0.045,-0.393 0.05,-0.415 0.059,-0.435C0.068,-0.455 0.08,-0.473 0.097,-0.489C0.114,-0.504 0.135,-0.516 0.159,-0.525C0.183,-0.534 0.209,-0.538 0.239,-0.538C0.274,-0.538 0.305,-0.532 0.333,-0.52C0.36,-0.508 0.382,-0.49 0.397,-0.464C0.413,-0.438 0.421,-0.405 0.421,-0.364L0.421,-0.128C0.421,-0.099 0.423,-0.075 0.426,-0.056C0.429,-0.037 0.434,-0.021 0.44,-0.008L0.44,-0L0.302,-0C0.296,-0.015 0.291,-0.033 0.288,-0.055C0.285,-0.077 0.284,-0.099 0.284,-0.121ZM0.3,-0.323L0.301,-0.241L0.251,-0.241C0.238,-0.241 0.226,-0.238 0.217,-0.234C0.207,-0.23 0.199,-0.224 0.192,-0.217C0.186,-0.209 0.181,-0.2 0.178,-0.19C0.175,-0.18 0.173,-0.169 0.173,-0.158C0.173,-0.145 0.175,-0.134 0.179,-0.125C0.182,-0.117 0.188,-0.11 0.195,-0.105C0.202,-0.101 0.21,-0.098 0.22,-0.098C0.235,-0.098 0.248,-0.102 0.259,-0.108C0.27,-0.114 0.278,-0.122 0.284,-0.13C0.289,-0.139 0.291,-0.147 0.289,-0.155L0.32,-0.101C0.316,-0.089 0.311,-0.077 0.304,-0.064C0.298,-0.051 0.289,-0.039 0.279,-0.028C0.269,-0.017 0.257,-0.008 0.242,-0.001C0.227,0.006 0.21,0.01 0.189,0.01C0.161,0.01 0.135,0.003 0.112,-0.01C0.089,-0.023 0.07,-0.041 0.057,-0.065C0.043,-0.088 0.036,-0.116 0.036,-0.148C0.036,-0.175 0.041,-0.199 0.049,-0.22C0.058,-0.242 0.071,-0.26 0.088,-0.276C0.105,-0.291 0.127,-0.302 0.153,-0.311C0.18,-0.319 0.211,-0.323 0.246,-0.323L0.3,-0.323Z" style="fill:rgb(0,65,145);fill-rule:nonzero;"/>
                </g>
                <g transform="matrix(41.666667,0,0,41.666667,2325.298393,291.280735)">
                    <rect x="0.057" y="-0.75" width="0.137" height="0.75" style="fill:rgb(0,65,145);fill-rule:nonzero;"/>
                </g>
                <g transform="matrix(41.666667,0,0,41.666667,2335.79644,291.280735)">
                    <path d="M0.194,-0.528L0.194,-0L0.057,-0L0.057,-0.528L0.194,-0.528ZM0.051,-0.665C0.051,-0.687 0.057,-0.704 0.071,-0.718C0.085,-0.731 0.103,-0.738 0.126,-0.738C0.149,-0.738 0.167,-0.731 0.18,-0.718C0.193,-0.704 0.2,-0.687 0.2,-0.665C0.2,-0.644 0.193,-0.627 0.18,-0.613C0.167,-0.599 0.149,-0.592 0.126,-0.592C0.103,-0.592 0.085,-0.599 0.071,-0.613C0.057,-0.627 0.051,-0.644 0.051,-0.665Z" style="fill:rgb(0,65,145);fill-rule:nonzero;"/>
                </g>
                <g transform="matrix(41.666667,0,0,41.666667,2346.294487,291.280735)">
                    <path d="M0.412,-0.114L0.412,-0L0.077,-0L0.077,-0.114L0.412,-0.114ZM0.409,-0.445L0.13,-0L0.039,-0L0.039,-0.086L0.317,-0.528L0.409,-0.528L0.409,-0.445ZM0.361,-0.528L0.361,-0.414L0.045,-0.414L0.045,-0.528L0.361,-0.528Z" style="fill:rgb(0,65,145);fill-rule:nonzero;"/>
                </g>
                <g transform="matrix(41.666667,0,0,41.666667,2365.134005,291.280735)">
                    <path d="M0.284,-0.121L0.284,-0.366C0.284,-0.382 0.282,-0.394 0.278,-0.404C0.274,-0.413 0.269,-0.42 0.262,-0.425C0.254,-0.429 0.245,-0.431 0.235,-0.431C0.223,-0.431 0.213,-0.429 0.205,-0.424C0.198,-0.419 0.192,-0.412 0.188,-0.403C0.184,-0.394 0.182,-0.383 0.182,-0.37L0.045,-0.37C0.045,-0.393 0.05,-0.415 0.059,-0.435C0.068,-0.455 0.08,-0.473 0.097,-0.489C0.114,-0.504 0.135,-0.516 0.159,-0.525C0.183,-0.534 0.209,-0.538 0.239,-0.538C0.274,-0.538 0.305,-0.532 0.333,-0.52C0.36,-0.508 0.382,-0.49 0.397,-0.464C0.413,-0.438 0.421,-0.405 0.421,-0.364L0.421,-0.128C0.421,-0.099 0.423,-0.075 0.426,-0.056C0.429,-0.037 0.434,-0.021 0.44,-0.008L0.44,-0L0.302,-0C0.296,-0.015 0.291,-0.033 0.288,-0.055C0.285,-0.077 0.284,-0.099 0.284,-0.121ZM0.3,-0.323L0.301,-0.241L0.251,-0.241C0.238,-0.241 0.226,-0.238 0.217,-0.234C0.207,-0.23 0.199,-0.224 0.192,-0.217C0.186,-0.209 0.181,-0.2 0.178,-0.19C0.175,-0.18 0.173,-0.169 0.173,-0.158C0.173,-0.145 0.175,-0.134 0.179,-0.125C0.182,-0.117 0.188,-0.11 0.195,-0.105C0.202,-0.101 0.21,-0.098 0.22,-0.098C0.235,-0.098 0.248,-0.102 0.259,-0.108C0.27,-0.114 0.278,-0.122 0.284,-0.13C0.289,-0.139 0.291,-0.147 0.289,-0.155L0.32,-0.101C0.316,-0.089 0.311,-0.077 0.304,-0.064C0.298,-0.051 0.289,-0.039 0.279,-0.028C0.269,-0.017 0.257,-0.008 0.242,-0.001C0.227,0.006 0.21,0.01 0.189,0.01C0.161,0.01 0.135,0.003 0.112,-0.01C0.089,-0.023 0.07,-0.041 0.057,-0.065C0.043,-0.088 0.036,-0.116 0.036,-0.148C0.036,-0.175 0.041,-0.199 0.049,-0.22C0.058,-0.242 0.071,-0.26 0.088,-0.276C0.105,-0.291 0.127,-0.302 0.153,-0.311C0.18,-0.319 0.211,-0.323 0.246,-0.323L0.3,-0.323Z" style="fill:rgb(0,65,145);fill-rule:nonzero;"/>
                </g>
                <g transform="matrix(41.666667,0,0,41.666667,2384.76698,291.280735)">
                    <path d="M0.281,-0.528L0.281,-0.425L0.012,-0.425L0.012,-0.528L0.281,-0.528ZM0.074,-0.659L0.21,-0.659L0.21,-0.161C0.21,-0.147 0.212,-0.135 0.214,-0.127C0.217,-0.12 0.222,-0.114 0.228,-0.111C0.234,-0.108 0.242,-0.106 0.252,-0.106C0.259,-0.106 0.265,-0.107 0.271,-0.108C0.277,-0.108 0.281,-0.109 0.284,-0.11L0.284,-0.003C0.273,0.001 0.262,0.004 0.25,0.006C0.238,0.009 0.224,0.01 0.208,0.01C0.181,0.01 0.157,0.005 0.137,-0.006C0.117,-0.016 0.101,-0.033 0.09,-0.056C0.079,-0.079 0.074,-0.109 0.074,-0.147L0.074,-0.659Z" style="fill:rgb(0,65,145);fill-rule:nonzero;"/>
                </g>
                <g transform="matrix(41.666667,0,0,41.666667,2397.543673,291.280735)">
                    <path d="M0.194,-0.528L0.194,-0L0.057,-0L0.057,-0.528L0.194,-0.528ZM0.051,-0.665C0.051,-0.687 0.057,-0.704 0.071,-0.718C0.085,-0.731 0.103,-0.738 0.126,-0.738C0.149,-0.738 0.167,-0.731 0.18,-0.718C0.193,-0.704 0.2,-0.687 0.2,-0.665C0.2,-0.644 0.193,-0.627 0.18,-0.613C0.167,-0.599 0.149,-0.592 0.126,-0.592C0.103,-0.592 0.085,-0.599 0.071,-0.613C0.057,-0.627 0.051,-0.644 0.051,-0.665Z" style="fill:rgb(0,65,145);fill-rule:nonzero;"/>
                </g>
                <g transform="matrix(41.666667,0,0,41.666667,2408.04172,291.280735)">
                    <path d="M0.035,-0.246L0.035,-0.282C0.035,-0.323 0.04,-0.36 0.05,-0.392C0.06,-0.423 0.074,-0.45 0.093,-0.472C0.111,-0.494 0.134,-0.51 0.16,-0.521C0.186,-0.532 0.216,-0.538 0.248,-0.538C0.281,-0.538 0.311,-0.532 0.337,-0.521C0.363,-0.51 0.386,-0.494 0.404,-0.472C0.423,-0.45 0.437,-0.423 0.447,-0.392C0.457,-0.36 0.462,-0.323 0.462,-0.282L0.462,-0.246C0.462,-0.205 0.457,-0.168 0.447,-0.137C0.437,-0.105 0.423,-0.078 0.404,-0.056C0.386,-0.034 0.363,-0.018 0.337,-0.007C0.311,0.004 0.281,0.01 0.249,0.01C0.216,0.01 0.187,0.004 0.161,-0.007C0.135,-0.018 0.112,-0.034 0.093,-0.056C0.074,-0.078 0.06,-0.105 0.05,-0.137C0.04,-0.168 0.035,-0.205 0.035,-0.246ZM0.172,-0.282L0.172,-0.246C0.172,-0.222 0.174,-0.2 0.177,-0.183C0.18,-0.165 0.185,-0.15 0.192,-0.138C0.199,-0.126 0.207,-0.118 0.216,-0.112C0.226,-0.107 0.237,-0.104 0.249,-0.104C0.262,-0.104 0.273,-0.107 0.282,-0.112C0.292,-0.118 0.3,-0.126 0.306,-0.138C0.313,-0.15 0.317,-0.165 0.321,-0.183C0.324,-0.2 0.325,-0.222 0.325,-0.246L0.325,-0.282C0.325,-0.306 0.324,-0.327 0.32,-0.345C0.316,-0.362 0.311,-0.377 0.305,-0.389C0.298,-0.401 0.29,-0.409 0.281,-0.415C0.271,-0.421 0.26,-0.424 0.248,-0.424C0.236,-0.424 0.226,-0.421 0.216,-0.415C0.207,-0.409 0.199,-0.401 0.192,-0.389C0.185,-0.377 0.18,-0.362 0.177,-0.345C0.174,-0.327 0.172,-0.306 0.172,-0.282Z" style="fill:rgb(0,65,145);fill-rule:nonzero;"/>
                </g>
                <g transform="matrix(41.666667,0,0,41.666667,2428.773328,291.280735)">
                    <path d="M0.185,-0.416L0.185,-0L0.048,-0L0.048,-0.528L0.176,-0.528L0.185,-0.416ZM0.165,-0.282L0.128,-0.281C0.127,-0.321 0.131,-0.356 0.139,-0.388C0.148,-0.42 0.159,-0.447 0.175,-0.469C0.19,-0.491 0.209,-0.508 0.23,-0.52C0.252,-0.532 0.276,-0.538 0.303,-0.538C0.324,-0.538 0.343,-0.535 0.36,-0.527C0.377,-0.52 0.391,-0.509 0.404,-0.493C0.416,-0.477 0.426,-0.457 0.433,-0.431C0.439,-0.405 0.443,-0.374 0.443,-0.336L0.443,-0L0.306,-0L0.306,-0.337C0.306,-0.36 0.303,-0.377 0.299,-0.39C0.294,-0.402 0.287,-0.411 0.278,-0.416C0.269,-0.421 0.258,-0.424 0.244,-0.424C0.231,-0.424 0.22,-0.42 0.21,-0.413C0.199,-0.406 0.191,-0.396 0.184,-0.383C0.178,-0.37 0.173,-0.355 0.169,-0.338C0.166,-0.321 0.164,-0.302 0.165,-0.282Z" style="fill:rgb(0,65,145);fill-rule:nonzero;"/>
                </g>
            </g>
            <g>
                <g transform="matrix(41.666667,0,0,41.666667,2143.149142,340.10886)">
                    <path d="M0.418,-0.176C0.418,-0.195 0.416,-0.212 0.411,-0.227C0.405,-0.242 0.397,-0.256 0.385,-0.268C0.373,-0.28 0.356,-0.291 0.336,-0.302C0.315,-0.313 0.29,-0.323 0.259,-0.333C0.229,-0.344 0.202,-0.355 0.178,-0.367C0.155,-0.379 0.134,-0.392 0.117,-0.408C0.1,-0.424 0.087,-0.442 0.078,-0.463C0.069,-0.484 0.064,-0.509 0.064,-0.537C0.064,-0.564 0.069,-0.589 0.079,-0.611C0.089,-0.634 0.103,-0.653 0.121,-0.67C0.139,-0.686 0.16,-0.699 0.184,-0.708C0.209,-0.716 0.236,-0.721 0.265,-0.721C0.308,-0.721 0.344,-0.711 0.375,-0.692C0.406,-0.673 0.43,-0.647 0.446,-0.615C0.463,-0.583 0.471,-0.548 0.471,-0.508L0.416,-0.508C0.416,-0.539 0.41,-0.566 0.398,-0.591C0.386,-0.615 0.369,-0.634 0.347,-0.648C0.325,-0.661 0.297,-0.668 0.265,-0.668C0.234,-0.668 0.207,-0.662 0.186,-0.651C0.164,-0.639 0.148,-0.623 0.137,-0.603C0.126,-0.584 0.121,-0.562 0.121,-0.538C0.121,-0.521 0.123,-0.505 0.129,-0.491C0.134,-0.477 0.143,-0.464 0.155,-0.452C0.167,-0.44 0.183,-0.428 0.203,-0.418C0.224,-0.407 0.248,-0.397 0.277,-0.388C0.309,-0.378 0.337,-0.366 0.362,-0.354C0.387,-0.341 0.407,-0.326 0.424,-0.31C0.441,-0.293 0.453,-0.274 0.462,-0.252C0.471,-0.23 0.475,-0.205 0.475,-0.177C0.475,-0.147 0.47,-0.121 0.46,-0.098C0.45,-0.075 0.435,-0.056 0.417,-0.04C0.399,-0.024 0.377,-0.011 0.352,-0.003C0.327,0.006 0.299,0.01 0.269,0.01C0.242,0.01 0.216,0.006 0.189,-0.003C0.163,-0.011 0.139,-0.024 0.117,-0.041C0.095,-0.058 0.078,-0.08 0.065,-0.107C0.052,-0.134 0.045,-0.166 0.045,-0.204L0.102,-0.204C0.102,-0.174 0.106,-0.149 0.116,-0.128C0.126,-0.108 0.139,-0.091 0.155,-0.078C0.171,-0.066 0.189,-0.057 0.209,-0.051C0.229,-0.045 0.249,-0.042 0.269,-0.042C0.299,-0.042 0.326,-0.048 0.348,-0.059C0.37,-0.07 0.388,-0.086 0.4,-0.106C0.412,-0.125 0.418,-0.149 0.418,-0.176Z" style="fill:rgb(0,65,145);fill-rule:nonzero;"/>
                </g>
                <g transform="matrix(41.666667,0,0,41.666667,2164.694552,340.10886)">
                    <path d="M0.244,-0.528L0.244,-0.479L0.018,-0.479L0.018,-0.528L0.244,-0.528ZM0.099,-0.663L0.154,-0.663L0.154,-0.129C0.154,-0.105 0.157,-0.086 0.162,-0.074C0.167,-0.061 0.174,-0.053 0.183,-0.049C0.191,-0.045 0.2,-0.043 0.21,-0.043C0.217,-0.043 0.224,-0.043 0.231,-0.044C0.238,-0.045 0.244,-0.047 0.249,-0.048L0.251,0.002C0.245,0.004 0.237,0.006 0.227,0.007C0.218,0.009 0.207,0.01 0.197,0.01C0.179,0.01 0.162,0.005 0.147,-0.003C0.133,-0.012 0.121,-0.026 0.112,-0.046C0.104,-0.066 0.099,-0.094 0.099,-0.129L0.099,-0.663Z" style="fill:rgb(0,65,145);fill-rule:nonzero;"/>
                </g>
                <g transform="matrix(41.666667,0,0,41.666667,2176.779513,340.10886)">
                    <path d="M0.355,-0.122L0.355,-0.528L0.409,-0.528L0.409,-0L0.357,-0L0.355,-0.122ZM0.365,-0.22L0.391,-0.221C0.391,-0.188 0.388,-0.158 0.381,-0.129C0.375,-0.101 0.364,-0.077 0.351,-0.056C0.337,-0.035 0.319,-0.019 0.297,-0.008C0.274,0.004 0.248,0.01 0.217,0.01C0.195,0.01 0.175,0.006 0.157,-0.001C0.139,-0.009 0.124,-0.02 0.111,-0.036C0.098,-0.052 0.088,-0.073 0.081,-0.098C0.074,-0.123 0.071,-0.154 0.071,-0.19L0.071,-0.528L0.125,-0.528L0.125,-0.189C0.125,-0.161 0.128,-0.138 0.133,-0.119C0.138,-0.1 0.145,-0.085 0.154,-0.074C0.164,-0.063 0.174,-0.055 0.186,-0.05C0.198,-0.045 0.21,-0.042 0.223,-0.042C0.259,-0.042 0.287,-0.051 0.307,-0.067C0.328,-0.084 0.343,-0.105 0.351,-0.132C0.36,-0.16 0.365,-0.189 0.365,-0.22Z" style="fill:rgb(0,65,145);fill-rule:nonzero;"/>
                </g>
                <g transform="matrix(41.666667,0,0,41.666667,2196.839734,340.10886)">
                    <path d="M0.244,-0.528L0.244,-0.479L0.018,-0.479L0.018,-0.528L0.244,-0.528ZM0.099,-0.663L0.154,-0.663L0.154,-0.129C0.154,-0.105 0.157,-0.086 0.162,-0.074C0.167,-0.061 0.174,-0.053 0.183,-0.049C0.191,-0.045 0.2,-0.043 0.21,-0.043C0.217,-0.043 0.224,-0.043 0.231,-0.044C0.238,-0.045 0.244,-0.047 0.249,-0.048L0.251,0.002C0.245,0.004 0.237,0.006 0.227,0.007C0.218,0.009 0.207,0.01 0.197,0.01C0.179,0.01 0.162,0.005 0.147,-0.003C0.133,-0.012 0.121,-0.026 0.112,-0.046C0.104,-0.066 0.099,-0.094 0.099,-0.129L0.099,-0.663Z" style="fill:rgb(0,65,145);fill-rule:nonzero;"/>
                </g>
                <g transform="matrix(41.666667,0,0,41.666667,2208.924695,340.10886)">
                    <path d="M0.244,-0.528L0.244,-0.479L0.018,-0.479L0.018,-0.528L0.244,-0.528ZM0.099,-0.663L0.154,-0.663L0.154,-0.129C0.154,-0.105 0.157,-0.086 0.162,-0.074C0.167,-0.061 0.174,-0.053 0.183,-0.049C0.191,-0.045 0.2,-0.043 0.21,-0.043C0.217,-0.043 0.224,-0.043 0.231,-0.044C0.238,-0.045 0.244,-0.047 0.249,-0.048L0.251,0.002C0.245,0.004 0.237,0.006 0.227,0.007C0.218,0.009 0.207,0.01 0.197,0.01C0.179,0.01 0.162,0.005 0.147,-0.003C0.133,-0.012 0.121,-0.026 0.112,-0.046C0.104,-0.066 0.099,-0.094 0.099,-0.129L0.099,-0.663Z" style="fill:rgb(0,65,145);fill-rule:nonzero;"/>
                </g>
                <g transform="matrix(41.666667,0,0,41.666667,2221.009656,340.10886)">
                    <path d="M0.364,-0.528L0.414,-0.528L0.414,0.013C0.414,0.059 0.407,0.096 0.392,0.125C0.378,0.154 0.357,0.176 0.331,0.189C0.305,0.203 0.273,0.21 0.237,0.21C0.22,0.21 0.201,0.207 0.182,0.202C0.162,0.196 0.144,0.188 0.126,0.177C0.109,0.166 0.094,0.153 0.082,0.138L0.107,0.099C0.126,0.119 0.145,0.134 0.167,0.145C0.188,0.155 0.21,0.16 0.233,0.16C0.261,0.16 0.284,0.155 0.302,0.146C0.321,0.136 0.335,0.121 0.345,0.099C0.355,0.078 0.36,0.05 0.36,0.015L0.36,-0.412L0.364,-0.528ZM0.053,-0.239L0.053,-0.289C0.053,-0.333 0.057,-0.371 0.065,-0.402C0.073,-0.434 0.084,-0.46 0.099,-0.48C0.114,-0.5 0.132,-0.514 0.153,-0.524C0.175,-0.533 0.199,-0.538 0.225,-0.538C0.251,-0.538 0.274,-0.533 0.293,-0.524C0.312,-0.514 0.329,-0.501 0.343,-0.483C0.356,-0.466 0.367,-0.445 0.376,-0.42C0.384,-0.396 0.39,-0.369 0.394,-0.339L0.394,-0.181C0.391,-0.153 0.385,-0.128 0.377,-0.104C0.369,-0.081 0.358,-0.06 0.344,-0.043C0.33,-0.027 0.313,-0.013 0.293,-0.004C0.273,0.006 0.25,0.01 0.224,0.01C0.198,0.01 0.174,0.005 0.153,-0.005C0.132,-0.015 0.114,-0.03 0.099,-0.051C0.084,-0.071 0.073,-0.097 0.065,-0.128C0.057,-0.16 0.053,-0.197 0.053,-0.239ZM0.108,-0.289L0.108,-0.239C0.108,-0.205 0.11,-0.176 0.115,-0.151C0.121,-0.127 0.128,-0.106 0.139,-0.09C0.149,-0.074 0.162,-0.062 0.178,-0.054C0.195,-0.046 0.214,-0.042 0.236,-0.042C0.263,-0.042 0.286,-0.048 0.305,-0.059C0.323,-0.071 0.338,-0.086 0.349,-0.105C0.36,-0.124 0.368,-0.145 0.373,-0.168L0.373,-0.348C0.37,-0.364 0.365,-0.38 0.359,-0.396C0.353,-0.412 0.345,-0.427 0.334,-0.441C0.323,-0.455 0.31,-0.466 0.294,-0.474C0.278,-0.482 0.259,-0.486 0.236,-0.486C0.214,-0.486 0.195,-0.482 0.179,-0.474C0.163,-0.466 0.149,-0.454 0.139,-0.438C0.128,-0.421 0.121,-0.401 0.115,-0.376C0.11,-0.352 0.108,-0.323 0.108,-0.289Z" style="fill:rgb(0,65,145);fill-rule:nonzero;"/>
                </g>
                <g transform="matrix(41.666667,0,0,41.666667,2241.273328,340.10886)">
                    <path d="M0.341,-0.094L0.341,-0.382C0.341,-0.407 0.337,-0.427 0.328,-0.443C0.32,-0.458 0.308,-0.469 0.292,-0.476C0.275,-0.484 0.255,-0.487 0.231,-0.487C0.209,-0.487 0.189,-0.483 0.172,-0.474C0.154,-0.465 0.141,-0.453 0.131,-0.437C0.121,-0.421 0.116,-0.403 0.116,-0.382L0.062,-0.383C0.062,-0.403 0.066,-0.423 0.074,-0.441C0.082,-0.46 0.094,-0.476 0.109,-0.491C0.124,-0.505 0.142,-0.517 0.163,-0.525C0.184,-0.534 0.208,-0.538 0.233,-0.538C0.265,-0.538 0.293,-0.533 0.317,-0.523C0.342,-0.513 0.361,-0.496 0.375,-0.473C0.388,-0.45 0.395,-0.419 0.395,-0.381L0.395,-0.111C0.395,-0.093 0.396,-0.074 0.399,-0.054C0.401,-0.035 0.405,-0.019 0.409,-0.007L0.409,-0L0.352,-0C0.348,-0.011 0.346,-0.026 0.344,-0.044C0.342,-0.062 0.341,-0.079 0.341,-0.094ZM0.353,-0.308L0.354,-0.262L0.26,-0.262C0.235,-0.262 0.212,-0.259 0.193,-0.254C0.174,-0.248 0.158,-0.24 0.145,-0.23C0.132,-0.22 0.122,-0.207 0.116,-0.193C0.109,-0.178 0.106,-0.162 0.106,-0.144C0.106,-0.12 0.11,-0.101 0.118,-0.086C0.125,-0.072 0.136,-0.061 0.151,-0.054C0.165,-0.047 0.183,-0.043 0.203,-0.043C0.229,-0.043 0.253,-0.049 0.273,-0.059C0.293,-0.07 0.31,-0.084 0.323,-0.102C0.336,-0.119 0.344,-0.138 0.348,-0.158L0.363,-0.125C0.36,-0.11 0.354,-0.095 0.345,-0.079C0.336,-0.064 0.325,-0.049 0.311,-0.035C0.297,-0.022 0.28,-0.011 0.261,-0.002C0.242,0.006 0.22,0.01 0.197,0.01C0.167,0.01 0.142,0.005 0.12,-0.006C0.099,-0.017 0.082,-0.034 0.07,-0.057C0.058,-0.079 0.052,-0.107 0.052,-0.139C0.052,-0.164 0.056,-0.186 0.065,-0.207C0.073,-0.227 0.085,-0.245 0.102,-0.26C0.119,-0.276 0.139,-0.288 0.165,-0.296C0.19,-0.304 0.219,-0.308 0.252,-0.308L0.353,-0.308Z" style="fill:rgb(0,65,145);fill-rule:nonzero;"/>
                </g>
                <g transform="matrix(41.666667,0,0,41.666667,2260.885958,340.10886)">
                    <path d="M0.127,-0.441L0.127,-0L0.073,-0L0.073,-0.528L0.125,-0.528L0.127,-0.441ZM0.281,-0.532L0.279,-0.478C0.274,-0.479 0.268,-0.479 0.263,-0.48C0.258,-0.48 0.252,-0.481 0.245,-0.481C0.225,-0.481 0.207,-0.476 0.192,-0.467C0.176,-0.458 0.163,-0.445 0.153,-0.429C0.142,-0.412 0.134,-0.393 0.128,-0.372C0.123,-0.35 0.119,-0.327 0.118,-0.302L0.1,-0.293C0.1,-0.328 0.103,-0.36 0.108,-0.389C0.114,-0.419 0.123,-0.445 0.135,-0.467C0.148,-0.49 0.163,-0.507 0.182,-0.519C0.2,-0.532 0.222,-0.538 0.248,-0.538C0.254,-0.538 0.26,-0.537 0.266,-0.536C0.273,-0.535 0.277,-0.534 0.281,-0.532Z" style="fill:rgb(0,65,145);fill-rule:nonzero;"/>
                </g>
                <g transform="matrix(41.666667,0,0,41.666667,2274.517143,340.10886)">
                    <path d="M0.244,-0.528L0.244,-0.479L0.018,-0.479L0.018,-0.528L0.244,-0.528ZM0.099,-0.663L0.154,-0.663L0.154,-0.129C0.154,-0.105 0.157,-0.086 0.162,-0.074C0.167,-0.061 0.174,-0.053 0.183,-0.049C0.191,-0.045 0.2,-0.043 0.21,-0.043C0.217,-0.043 0.224,-0.043 0.231,-0.044C0.238,-0.045 0.244,-0.047 0.249,-0.048L0.251,0.002C0.245,0.004 0.237,0.006 0.227,0.007C0.218,0.009 0.207,0.01 0.197,0.01C0.179,0.01 0.162,0.005 0.147,-0.003C0.133,-0.012 0.121,-0.026 0.112,-0.046C0.104,-0.066 0.099,-0.094 0.099,-0.129L0.099,-0.663Z" style="fill:rgb(0,65,145);fill-rule:nonzero;"/>
                </g>
                <g transform="matrix(41.666667,0,0,41.666667,2286.602104,340.10886)">
                    <path d="M0.133,-0.093L0.133,-0.024C0.133,0.005 0.127,0.034 0.115,0.062C0.102,0.091 0.086,0.114 0.064,0.133L0.03,0.108C0.04,0.094 0.048,0.08 0.055,0.067C0.062,0.053 0.067,0.039 0.07,0.025C0.073,0.01 0.075,-0.006 0.075,-0.023L0.075,-0.093L0.133,-0.093Z" style="fill:rgb(0,65,145);fill-rule:nonzero;"/>
                </g>
                <g transform="matrix(41.666667,0,0,41.666667,2303.956433,340.10886)">
                    <path d="M0.517,-0.339L0.517,-0.083C0.51,-0.073 0.498,-0.061 0.482,-0.047C0.465,-0.032 0.443,-0.019 0.415,-0.007C0.387,0.004 0.351,0.01 0.309,0.01C0.274,0.01 0.241,0.004 0.212,-0.008C0.183,-0.021 0.158,-0.039 0.137,-0.063C0.116,-0.087 0.1,-0.117 0.089,-0.152C0.077,-0.188 0.072,-0.229 0.072,-0.276L0.072,-0.44C0.072,-0.486 0.077,-0.526 0.087,-0.561C0.097,-0.596 0.112,-0.626 0.132,-0.649C0.152,-0.673 0.176,-0.691 0.204,-0.703C0.232,-0.715 0.265,-0.721 0.301,-0.721C0.345,-0.721 0.383,-0.712 0.414,-0.696C0.445,-0.68 0.469,-0.656 0.487,-0.625C0.504,-0.593 0.514,-0.555 0.517,-0.511L0.461,-0.511C0.458,-0.543 0.45,-0.572 0.438,-0.595C0.426,-0.619 0.409,-0.637 0.387,-0.649C0.365,-0.662 0.336,-0.668 0.301,-0.668C0.272,-0.668 0.247,-0.664 0.225,-0.654C0.204,-0.644 0.186,-0.63 0.171,-0.61C0.157,-0.591 0.146,-0.567 0.139,-0.539C0.132,-0.511 0.128,-0.478 0.128,-0.441L0.128,-0.276C0.128,-0.238 0.132,-0.204 0.141,-0.175C0.149,-0.146 0.161,-0.122 0.177,-0.102C0.193,-0.082 0.212,-0.067 0.234,-0.057C0.256,-0.047 0.281,-0.042 0.309,-0.042C0.339,-0.042 0.364,-0.046 0.385,-0.053C0.405,-0.061 0.422,-0.069 0.434,-0.079C0.447,-0.088 0.456,-0.096 0.461,-0.102L0.461,-0.287L0.305,-0.287L0.305,-0.339L0.517,-0.339Z" style="fill:rgb(0,65,145);fill-rule:nonzero;"/>
                </g>
                <g transform="matrix(41.666667,0,0,41.666667,2328.696017,340.10886)">
                    <path d="M0.247,0.01C0.218,0.01 0.191,0.005 0.166,-0.004C0.142,-0.014 0.121,-0.028 0.103,-0.048C0.085,-0.068 0.071,-0.093 0.062,-0.123C0.052,-0.153 0.047,-0.188 0.047,-0.229L0.047,-0.29C0.047,-0.334 0.052,-0.372 0.062,-0.403C0.073,-0.434 0.087,-0.46 0.105,-0.48C0.122,-0.5 0.143,-0.515 0.166,-0.524C0.188,-0.533 0.212,-0.538 0.238,-0.538C0.267,-0.538 0.292,-0.533 0.314,-0.524C0.336,-0.514 0.354,-0.5 0.369,-0.481C0.384,-0.462 0.396,-0.437 0.403,-0.408C0.411,-0.379 0.415,-0.345 0.415,-0.305L0.415,-0.26L0.08,-0.26L0.08,-0.311L0.36,-0.311L0.36,-0.324C0.359,-0.359 0.355,-0.388 0.346,-0.412C0.337,-0.436 0.323,-0.455 0.305,-0.468C0.288,-0.481 0.265,-0.487 0.238,-0.487C0.218,-0.487 0.199,-0.483 0.182,-0.476C0.166,-0.469 0.151,-0.457 0.139,-0.442C0.127,-0.426 0.117,-0.406 0.111,-0.381C0.105,-0.356 0.101,-0.325 0.101,-0.29L0.101,-0.229C0.101,-0.197 0.105,-0.169 0.112,-0.146C0.119,-0.122 0.129,-0.103 0.142,-0.087C0.155,-0.072 0.171,-0.06 0.189,-0.052C0.207,-0.045 0.227,-0.041 0.25,-0.041C0.276,-0.041 0.3,-0.045 0.321,-0.055C0.341,-0.064 0.36,-0.078 0.376,-0.097L0.404,-0.061C0.395,-0.048 0.383,-0.036 0.369,-0.026C0.355,-0.015 0.337,-0.006 0.318,0C0.298,0.007 0.274,0.01 0.247,0.01Z" style="fill:rgb(0,65,145);fill-rule:nonzero;"/>
                </g>
                <g transform="matrix(41.666667,0,0,41.666667,2347.759331,340.10886)">
                    <path d="M0.127,-0.441L0.127,-0L0.073,-0L0.073,-0.528L0.125,-0.528L0.127,-0.441ZM0.281,-0.532L0.279,-0.478C0.274,-0.479 0.268,-0.479 0.263,-0.48C0.258,-0.48 0.252,-0.481 0.245,-0.481C0.225,-0.481 0.207,-0.476 0.192,-0.467C0.176,-0.458 0.163,-0.445 0.153,-0.429C0.142,-0.412 0.134,-0.393 0.128,-0.372C0.123,-0.35 0.119,-0.327 0.118,-0.302L0.1,-0.293C0.1,-0.328 0.103,-0.36 0.108,-0.389C0.114,-0.419 0.123,-0.445 0.135,-0.467C0.148,-0.49 0.163,-0.507 0.182,-0.519C0.2,-0.532 0.222,-0.538 0.248,-0.538C0.254,-0.538 0.26,-0.537 0.266,-0.536C0.273,-0.535 0.277,-0.534 0.281,-0.532Z" style="fill:rgb(0,65,145);fill-rule:nonzero;"/>
                </g>
                <g transform="matrix(41.666667,0,0,41.666667,2360.373263,340.10886)">
                    <path d="M0.125,-0.42L0.125,-0L0.07,-0L0.07,-0.528L0.123,-0.528L0.125,-0.42ZM0.115,-0.297L0.089,-0.311C0.09,-0.342 0.095,-0.372 0.103,-0.399C0.111,-0.426 0.123,-0.45 0.138,-0.471C0.152,-0.492 0.171,-0.509 0.192,-0.521C0.214,-0.532 0.238,-0.538 0.266,-0.538C0.287,-0.538 0.306,-0.535 0.324,-0.528C0.341,-0.521 0.356,-0.51 0.369,-0.495C0.382,-0.48 0.392,-0.461 0.398,-0.437C0.405,-0.413 0.408,-0.385 0.408,-0.352L0.408,-0L0.354,-0L0.354,-0.349C0.354,-0.384 0.35,-0.412 0.341,-0.432C0.332,-0.451 0.319,-0.466 0.304,-0.474C0.288,-0.482 0.269,-0.486 0.248,-0.486C0.224,-0.486 0.203,-0.48 0.186,-0.468C0.169,-0.456 0.156,-0.441 0.146,-0.421C0.135,-0.402 0.128,-0.381 0.123,-0.359C0.118,-0.337 0.115,-0.316 0.115,-0.297ZM0.408,-0.343L0.371,-0.341C0.373,-0.366 0.378,-0.391 0.386,-0.415C0.395,-0.438 0.406,-0.459 0.421,-0.478C0.436,-0.496 0.454,-0.511 0.475,-0.522C0.496,-0.533 0.52,-0.538 0.547,-0.538C0.57,-0.538 0.591,-0.534 0.609,-0.527C0.627,-0.52 0.642,-0.508 0.655,-0.492C0.668,-0.477 0.677,-0.457 0.684,-0.432C0.69,-0.408 0.693,-0.379 0.693,-0.345L0.693,-0L0.638,-0L0.638,-0.345C0.638,-0.382 0.634,-0.411 0.625,-0.431C0.616,-0.452 0.604,-0.466 0.588,-0.474C0.573,-0.482 0.554,-0.486 0.533,-0.486C0.513,-0.486 0.495,-0.482 0.479,-0.473C0.464,-0.464 0.451,-0.452 0.441,-0.438C0.43,-0.423 0.423,-0.408 0.417,-0.391C0.412,-0.374 0.409,-0.358 0.408,-0.343Z" style="fill:rgb(0,65,145);fill-rule:nonzero;"/>
                </g>
                <g transform="matrix(41.666667,0,0,41.666667,2392.152234,340.10886)">
                    <path d="M0.341,-0.094L0.341,-0.382C0.341,-0.407 0.337,-0.427 0.328,-0.443C0.32,-0.458 0.308,-0.469 0.292,-0.476C0.275,-0.484 0.255,-0.487 0.231,-0.487C0.209,-0.487 0.189,-0.483 0.172,-0.474C0.154,-0.465 0.141,-0.453 0.131,-0.437C0.121,-0.421 0.116,-0.403 0.116,-0.382L0.062,-0.383C0.062,-0.403 0.066,-0.423 0.074,-0.441C0.082,-0.46 0.094,-0.476 0.109,-0.491C0.124,-0.505 0.142,-0.517 0.163,-0.525C0.184,-0.534 0.208,-0.538 0.233,-0.538C0.265,-0.538 0.293,-0.533 0.317,-0.523C0.342,-0.513 0.361,-0.496 0.375,-0.473C0.388,-0.45 0.395,-0.419 0.395,-0.381L0.395,-0.111C0.395,-0.093 0.396,-0.074 0.399,-0.054C0.401,-0.035 0.405,-0.019 0.409,-0.007L0.409,-0L0.352,-0C0.348,-0.011 0.346,-0.026 0.344,-0.044C0.342,-0.062 0.341,-0.079 0.341,-0.094ZM0.353,-0.308L0.354,-0.262L0.26,-0.262C0.235,-0.262 0.212,-0.259 0.193,-0.254C0.174,-0.248 0.158,-0.24 0.145,-0.23C0.132,-0.22 0.122,-0.207 0.116,-0.193C0.109,-0.178 0.106,-0.162 0.106,-0.144C0.106,-0.12 0.11,-0.101 0.118,-0.086C0.125,-0.072 0.136,-0.061 0.151,-0.054C0.165,-0.047 0.183,-0.043 0.203,-0.043C0.229,-0.043 0.253,-0.049 0.273,-0.059C0.293,-0.07 0.31,-0.084 0.323,-0.102C0.336,-0.119 0.344,-0.138 0.348,-0.158L0.363,-0.125C0.36,-0.11 0.354,-0.095 0.345,-0.079C0.336,-0.064 0.325,-0.049 0.311,-0.035C0.297,-0.022 0.28,-0.011 0.261,-0.002C0.242,0.006 0.22,0.01 0.197,0.01C0.167,0.01 0.142,0.005 0.12,-0.006C0.099,-0.017 0.082,-0.034 0.07,-0.057C0.058,-0.079 0.052,-0.107 0.052,-0.139C0.052,-0.164 0.056,-0.186 0.065,-0.207C0.073,-0.227 0.085,-0.245 0.102,-0.26C0.119,-0.276 0.139,-0.288 0.165,-0.296C0.19,-0.304 0.219,-0.308 0.252,-0.308L0.353,-0.308Z" style="fill:rgb(0,65,145);fill-rule:nonzero;"/>
                </g>
                <g transform="matrix(41.666667,0,0,41.666667,2411.764864,340.10886)">
                    <path d="M0.127,-0.416L0.127,-0L0.073,-0L0.073,-0.528L0.125,-0.528L0.127,-0.416ZM0.115,-0.297L0.091,-0.311C0.092,-0.342 0.097,-0.372 0.106,-0.399C0.115,-0.426 0.127,-0.45 0.143,-0.471C0.158,-0.492 0.177,-0.509 0.198,-0.521C0.219,-0.532 0.243,-0.538 0.269,-0.538C0.291,-0.538 0.31,-0.535 0.328,-0.527C0.345,-0.52 0.36,-0.509 0.372,-0.494C0.384,-0.478 0.394,-0.458 0.4,-0.434C0.407,-0.409 0.41,-0.379 0.41,-0.344L0.41,-0L0.356,-0L0.356,-0.345C0.356,-0.381 0.352,-0.409 0.344,-0.43C0.336,-0.45 0.324,-0.465 0.309,-0.473C0.293,-0.482 0.275,-0.486 0.254,-0.486C0.232,-0.486 0.212,-0.48 0.195,-0.468C0.178,-0.456 0.163,-0.441 0.151,-0.421C0.14,-0.402 0.131,-0.381 0.125,-0.359C0.118,-0.337 0.115,-0.316 0.115,-0.297Z" style="fill:rgb(0,65,145);fill-rule:nonzero;"/>
                </g>
                <g transform="matrix(41.666667,0,0,41.666667,2431.845431,340.10886)">
                    <path d="M0.203,-0.053L0.339,-0.528L0.397,-0.528L0.211,0.084C0.207,0.097 0.202,0.11 0.196,0.125C0.19,0.139 0.182,0.154 0.172,0.167C0.163,0.181 0.151,0.192 0.137,0.201C0.123,0.209 0.106,0.213 0.085,0.213C0.08,0.213 0.073,0.213 0.065,0.211C0.056,0.21 0.05,0.208 0.047,0.207L0.046,0.157C0.049,0.158 0.053,0.159 0.059,0.159C0.064,0.16 0.068,0.16 0.071,0.16C0.088,0.16 0.103,0.157 0.115,0.15C0.127,0.143 0.137,0.132 0.146,0.118C0.154,0.104 0.161,0.086 0.167,0.065L0.203,-0.053ZM0.082,-0.528L0.218,-0.076L0.232,-0.014L0.193,0.01L0.022,-0.528L0.082,-0.528Z" style="fill:rgb(0,65,145);fill-rule:nonzero;"/>
                </g>
            </g>
            <g>
                <g transform="matrix(41.666667,0,0,41.666667,2157.675509,388.936985)">
                    <path d="M0.428,-0.416L0.428,-0.297C0.428,-0.244 0.424,-0.199 0.415,-0.16C0.407,-0.122 0.395,-0.09 0.379,-0.065C0.363,-0.04 0.344,-0.021 0.321,-0.009C0.298,0.004 0.272,0.01 0.244,0.01C0.221,0.01 0.2,0.006 0.18,-0.002C0.161,-0.01 0.144,-0.021 0.129,-0.038C0.114,-0.054 0.101,-0.074 0.091,-0.098C0.08,-0.123 0.072,-0.151 0.067,-0.184C0.061,-0.217 0.058,-0.255 0.058,-0.297L0.058,-0.416C0.058,-0.469 0.063,-0.514 0.071,-0.553C0.08,-0.591 0.092,-0.622 0.108,-0.647C0.124,-0.672 0.143,-0.691 0.166,-0.703C0.189,-0.715 0.214,-0.721 0.243,-0.721C0.266,-0.721 0.287,-0.717 0.307,-0.709C0.326,-0.702 0.343,-0.69 0.358,-0.674C0.373,-0.658 0.386,-0.638 0.396,-0.614C0.406,-0.59 0.414,-0.562 0.42,-0.529C0.425,-0.496 0.428,-0.459 0.428,-0.416ZM0.374,-0.29L0.374,-0.424C0.374,-0.457 0.372,-0.486 0.368,-0.512C0.364,-0.538 0.359,-0.561 0.352,-0.581C0.346,-0.601 0.337,-0.617 0.326,-0.63C0.316,-0.644 0.304,-0.653 0.29,-0.66C0.276,-0.667 0.26,-0.67 0.243,-0.67C0.222,-0.67 0.203,-0.665 0.186,-0.655C0.17,-0.644 0.157,-0.629 0.146,-0.608C0.135,-0.587 0.127,-0.562 0.121,-0.531C0.116,-0.5 0.113,-0.465 0.113,-0.424L0.113,-0.29C0.113,-0.258 0.115,-0.229 0.118,-0.203C0.122,-0.177 0.127,-0.154 0.134,-0.133C0.141,-0.113 0.15,-0.096 0.161,-0.083C0.171,-0.069 0.183,-0.059 0.197,-0.052C0.211,-0.045 0.226,-0.041 0.244,-0.041C0.265,-0.041 0.285,-0.047 0.301,-0.058C0.317,-0.069 0.331,-0.085 0.341,-0.106C0.352,-0.127 0.36,-0.153 0.365,-0.184C0.371,-0.215 0.374,-0.25 0.374,-0.29Z" style="fill:rgb(0,65,145);fill-rule:nonzero;"/>
                </g>
                <g transform="matrix(41.666667,0,0,41.666667,2177.918836,388.936985)">
                    <path d="M0.434,-0.189C0.434,-0.146 0.426,-0.11 0.409,-0.08C0.392,-0.051 0.369,-0.028 0.34,-0.013C0.312,0.002 0.28,0.01 0.244,0.01C0.208,0.01 0.176,0.002 0.147,-0.013C0.118,-0.028 0.096,-0.051 0.079,-0.08C0.062,-0.11 0.054,-0.146 0.054,-0.189C0.054,-0.217 0.059,-0.243 0.068,-0.266C0.078,-0.289 0.091,-0.31 0.107,-0.327C0.124,-0.344 0.144,-0.357 0.167,-0.366C0.19,-0.376 0.216,-0.381 0.243,-0.381C0.279,-0.381 0.312,-0.372 0.34,-0.356C0.369,-0.339 0.392,-0.317 0.409,-0.288C0.426,-0.26 0.434,-0.227 0.434,-0.189ZM0.379,-0.188C0.379,-0.219 0.373,-0.245 0.361,-0.268C0.349,-0.29 0.333,-0.308 0.313,-0.321C0.292,-0.333 0.269,-0.339 0.243,-0.339C0.217,-0.339 0.193,-0.333 0.173,-0.321C0.153,-0.308 0.137,-0.29 0.125,-0.268C0.114,-0.245 0.108,-0.219 0.108,-0.188C0.108,-0.157 0.114,-0.131 0.125,-0.109C0.137,-0.087 0.153,-0.07 0.173,-0.059C0.194,-0.047 0.217,-0.041 0.244,-0.041C0.271,-0.041 0.294,-0.047 0.314,-0.059C0.335,-0.07 0.351,-0.087 0.362,-0.109C0.374,-0.131 0.379,-0.157 0.379,-0.188ZM0.419,-0.528C0.419,-0.493 0.411,-0.462 0.396,-0.435C0.38,-0.408 0.359,-0.387 0.333,-0.371C0.306,-0.356 0.277,-0.348 0.244,-0.348C0.21,-0.348 0.18,-0.356 0.154,-0.371C0.127,-0.387 0.107,-0.408 0.092,-0.435C0.076,-0.462 0.069,-0.493 0.069,-0.528C0.069,-0.569 0.076,-0.604 0.092,-0.633C0.107,-0.661 0.128,-0.683 0.154,-0.698C0.18,-0.713 0.21,-0.721 0.243,-0.721C0.277,-0.721 0.307,-0.713 0.333,-0.698C0.359,-0.683 0.38,-0.661 0.396,-0.633C0.411,-0.604 0.419,-0.569 0.419,-0.528ZM0.365,-0.528C0.365,-0.556 0.359,-0.58 0.349,-0.602C0.338,-0.623 0.324,-0.639 0.305,-0.651C0.287,-0.664 0.266,-0.67 0.243,-0.67C0.22,-0.67 0.199,-0.664 0.181,-0.653C0.163,-0.641 0.149,-0.625 0.139,-0.604C0.128,-0.583 0.123,-0.558 0.123,-0.528C0.123,-0.5 0.128,-0.476 0.139,-0.455C0.149,-0.434 0.163,-0.418 0.181,-0.407C0.199,-0.396 0.22,-0.39 0.244,-0.39C0.267,-0.39 0.288,-0.396 0.306,-0.407C0.324,-0.418 0.339,-0.434 0.349,-0.455C0.36,-0.476 0.365,-0.5 0.365,-0.528Z" style="fill:rgb(0,65,145);fill-rule:nonzero;"/>
                </g>
                <g transform="matrix(41.666667,0,0,41.666667,2198.162163,388.936985)">
                    <rect x="0.077" y="-0.385" width="0.41" height="0.051" style="fill:rgb(0,65,145);fill-rule:nonzero;"/>
                </g>
                <g transform="matrix(41.666667,0,0,41.666667,2221.803113,388.936985)">
                    <path d="M0.297,-0.714L0.297,-0L0.243,-0L0.243,-0.639L0.083,-0.567L0.083,-0.623L0.288,-0.714L0.297,-0.714Z" style="fill:rgb(0,65,145);fill-rule:nonzero;"/>
                </g>
                <g transform="matrix(41.666667,0,0,41.666667,2242.04644,388.936985)">
                    <path d="M0.442,-0.051L0.442,-0L0.065,-0L0.065,-0.046L0.26,-0.31C0.285,-0.343 0.304,-0.372 0.318,-0.397C0.332,-0.422 0.343,-0.445 0.349,-0.465C0.355,-0.485 0.358,-0.505 0.358,-0.525C0.358,-0.553 0.354,-0.578 0.344,-0.6C0.335,-0.622 0.322,-0.639 0.304,-0.651C0.286,-0.664 0.264,-0.67 0.238,-0.67C0.21,-0.67 0.187,-0.663 0.167,-0.648C0.148,-0.634 0.133,-0.615 0.122,-0.59C0.112,-0.566 0.106,-0.538 0.106,-0.506L0.052,-0.506C0.052,-0.545 0.06,-0.581 0.074,-0.614C0.089,-0.646 0.11,-0.672 0.138,-0.691C0.165,-0.711 0.199,-0.721 0.238,-0.721C0.274,-0.721 0.305,-0.713 0.331,-0.698C0.357,-0.683 0.377,-0.661 0.392,-0.632C0.406,-0.604 0.413,-0.57 0.413,-0.53C0.413,-0.509 0.41,-0.487 0.404,-0.466C0.397,-0.444 0.389,-0.422 0.378,-0.401C0.367,-0.379 0.354,-0.358 0.34,-0.337C0.326,-0.315 0.311,-0.295 0.296,-0.274L0.131,-0.051L0.442,-0.051Z" style="fill:rgb(0,65,145);fill-rule:nonzero;"/>
                </g>
                <g transform="matrix(41.666667,0,0,41.666667,2271.648491,388.936985)">
                    <path d="M0.345,-0.212L0.345,-0.711L0.401,-0.711L0.401,-0.212C0.401,-0.164 0.393,-0.123 0.378,-0.091C0.362,-0.058 0.34,-0.033 0.313,-0.016C0.285,0.001 0.254,0.01 0.219,0.01C0.183,0.01 0.152,0.002 0.124,-0.013C0.097,-0.028 0.076,-0.05 0.06,-0.081C0.045,-0.111 0.037,-0.15 0.037,-0.196L0.094,-0.196C0.094,-0.162 0.099,-0.134 0.109,-0.111C0.119,-0.088 0.134,-0.071 0.152,-0.06C0.171,-0.048 0.194,-0.042 0.219,-0.042C0.243,-0.042 0.264,-0.049 0.283,-0.062C0.302,-0.074 0.318,-0.093 0.329,-0.119C0.34,-0.144 0.345,-0.175 0.345,-0.212Z" style="fill:rgb(0,65,145);fill-rule:nonzero;"/>
                </g>
                <g transform="matrix(41.666667,0,0,41.666667,2291.749402,388.936985)">
                    <path d="M0.355,-0.122L0.355,-0.528L0.409,-0.528L0.409,-0L0.357,-0L0.355,-0.122ZM0.365,-0.22L0.391,-0.221C0.391,-0.188 0.388,-0.158 0.381,-0.129C0.375,-0.101 0.364,-0.077 0.351,-0.056C0.337,-0.035 0.319,-0.019 0.297,-0.008C0.274,0.004 0.248,0.01 0.217,0.01C0.195,0.01 0.175,0.006 0.157,-0.001C0.139,-0.009 0.124,-0.02 0.111,-0.036C0.098,-0.052 0.088,-0.073 0.081,-0.098C0.074,-0.123 0.071,-0.154 0.071,-0.19L0.071,-0.528L0.125,-0.528L0.125,-0.189C0.125,-0.161 0.128,-0.138 0.133,-0.119C0.138,-0.1 0.145,-0.085 0.154,-0.074C0.164,-0.063 0.174,-0.055 0.186,-0.05C0.198,-0.045 0.21,-0.042 0.223,-0.042C0.259,-0.042 0.287,-0.051 0.307,-0.067C0.328,-0.084 0.343,-0.105 0.351,-0.132C0.36,-0.16 0.365,-0.189 0.365,-0.22Z" style="fill:rgb(0,65,145);fill-rule:nonzero;"/>
                </g>
                <g transform="matrix(41.666667,0,0,41.666667,2311.809624,388.936985)">
                    <path d="M0.127,-0.416L0.127,-0L0.073,-0L0.073,-0.528L0.125,-0.528L0.127,-0.416ZM0.115,-0.297L0.091,-0.311C0.092,-0.342 0.097,-0.372 0.106,-0.399C0.115,-0.426 0.127,-0.45 0.143,-0.471C0.158,-0.492 0.177,-0.509 0.198,-0.521C0.219,-0.532 0.243,-0.538 0.269,-0.538C0.291,-0.538 0.31,-0.535 0.328,-0.527C0.345,-0.52 0.36,-0.509 0.372,-0.494C0.384,-0.478 0.394,-0.458 0.4,-0.434C0.407,-0.409 0.41,-0.379 0.41,-0.344L0.41,-0L0.356,-0L0.356,-0.345C0.356,-0.381 0.352,-0.409 0.344,-0.43C0.336,-0.45 0.324,-0.465 0.309,-0.473C0.293,-0.482 0.275,-0.486 0.254,-0.486C0.232,-0.486 0.212,-0.48 0.195,-0.468C0.178,-0.456 0.163,-0.441 0.151,-0.421C0.14,-0.402 0.131,-0.381 0.125,-0.359C0.118,-0.337 0.115,-0.316 0.115,-0.297Z" style="fill:rgb(0,65,145);fill-rule:nonzero;"/>
                </g>
                <g transform="matrix(41.666667,0,0,41.666667,2331.89019,388.936985)">
                    <path d="M0.247,0.01C0.218,0.01 0.191,0.005 0.166,-0.004C0.142,-0.014 0.121,-0.028 0.103,-0.048C0.085,-0.068 0.071,-0.093 0.062,-0.123C0.052,-0.153 0.047,-0.188 0.047,-0.229L0.047,-0.29C0.047,-0.334 0.052,-0.372 0.062,-0.403C0.073,-0.434 0.087,-0.46 0.105,-0.48C0.122,-0.5 0.143,-0.515 0.166,-0.524C0.188,-0.533 0.212,-0.538 0.238,-0.538C0.267,-0.538 0.292,-0.533 0.314,-0.524C0.336,-0.514 0.354,-0.5 0.369,-0.481C0.384,-0.462 0.396,-0.437 0.403,-0.408C0.411,-0.379 0.415,-0.345 0.415,-0.305L0.415,-0.26L0.08,-0.26L0.08,-0.311L0.36,-0.311L0.36,-0.324C0.359,-0.359 0.355,-0.388 0.346,-0.412C0.337,-0.436 0.323,-0.455 0.305,-0.468C0.288,-0.481 0.265,-0.487 0.238,-0.487C0.218,-0.487 0.199,-0.483 0.182,-0.476C0.166,-0.469 0.151,-0.457 0.139,-0.442C0.127,-0.426 0.117,-0.406 0.111,-0.381C0.105,-0.356 0.101,-0.325 0.101,-0.29L0.101,-0.229C0.101,-0.197 0.105,-0.169 0.112,-0.146C0.119,-0.122 0.129,-0.103 0.142,-0.087C0.155,-0.072 0.171,-0.06 0.189,-0.052C0.207,-0.045 0.227,-0.041 0.25,-0.041C0.276,-0.041 0.3,-0.045 0.321,-0.055C0.341,-0.064 0.36,-0.078 0.376,-0.097L0.404,-0.061C0.395,-0.048 0.383,-0.036 0.369,-0.026C0.355,-0.015 0.337,-0.006 0.318,0C0.298,0.007 0.274,0.01 0.247,0.01Z" style="fill:rgb(0,65,145);fill-rule:nonzero;"/>
                </g>
                <g transform="matrix(41.666667,0,0,41.666667,2350.953504,388.936985)">
                    <path d="M0.133,-0.093L0.133,-0.024C0.133,0.005 0.127,0.034 0.115,0.062C0.102,0.091 0.086,0.114 0.064,0.133L0.03,0.108C0.04,0.094 0.048,0.08 0.055,0.067C0.062,0.053 0.067,0.039 0.07,0.025C0.073,0.01 0.075,-0.006 0.075,-0.023L0.075,-0.093L0.133,-0.093Z" style="fill:rgb(0,65,145);fill-rule:nonzero;"/>
                </g>
                <g transform="matrix(41.666667,0,0,41.666667,2368.307833,388.936985)">
                    <path d="M0.442,-0.051L0.442,-0L0.065,-0L0.065,-0.046L0.26,-0.31C0.285,-0.343 0.304,-0.372 0.318,-0.397C0.332,-0.422 0.343,-0.445 0.349,-0.465C0.355,-0.485 0.358,-0.505 0.358,-0.525C0.358,-0.553 0.354,-0.578 0.344,-0.6C0.335,-0.622 0.322,-0.639 0.304,-0.651C0.286,-0.664 0.264,-0.67 0.238,-0.67C0.21,-0.67 0.187,-0.663 0.167,-0.648C0.148,-0.634 0.133,-0.615 0.122,-0.59C0.112,-0.566 0.106,-0.538 0.106,-0.506L0.052,-0.506C0.052,-0.545 0.06,-0.581 0.074,-0.614C0.089,-0.646 0.11,-0.672 0.138,-0.691C0.165,-0.711 0.199,-0.721 0.238,-0.721C0.274,-0.721 0.305,-0.713 0.331,-0.698C0.357,-0.683 0.377,-0.661 0.392,-0.632C0.406,-0.604 0.413,-0.57 0.413,-0.53C0.413,-0.509 0.41,-0.487 0.404,-0.466C0.397,-0.444 0.389,-0.422 0.378,-0.401C0.367,-0.379 0.354,-0.358 0.34,-0.337C0.326,-0.315 0.311,-0.295 0.296,-0.274L0.131,-0.051L0.442,-0.051Z" style="fill:rgb(0,65,145);fill-rule:nonzero;"/>
                </g>
                <g transform="matrix(41.666667,0,0,41.666667,2388.55116,388.936985)">
                    <path d="M0.428,-0.416L0.428,-0.297C0.428,-0.244 0.424,-0.199 0.415,-0.16C0.407,-0.122 0.395,-0.09 0.379,-0.065C0.363,-0.04 0.344,-0.021 0.321,-0.009C0.298,0.004 0.272,0.01 0.244,0.01C0.221,0.01 0.2,0.006 0.18,-0.002C0.161,-0.01 0.144,-0.021 0.129,-0.038C0.114,-0.054 0.101,-0.074 0.091,-0.098C0.08,-0.123 0.072,-0.151 0.067,-0.184C0.061,-0.217 0.058,-0.255 0.058,-0.297L0.058,-0.416C0.058,-0.469 0.063,-0.514 0.071,-0.553C0.08,-0.591 0.092,-0.622 0.108,-0.647C0.124,-0.672 0.143,-0.691 0.166,-0.703C0.189,-0.715 0.214,-0.721 0.243,-0.721C0.266,-0.721 0.287,-0.717 0.307,-0.709C0.326,-0.702 0.343,-0.69 0.358,-0.674C0.373,-0.658 0.386,-0.638 0.396,-0.614C0.406,-0.59 0.414,-0.562 0.42,-0.529C0.425,-0.496 0.428,-0.459 0.428,-0.416ZM0.374,-0.29L0.374,-0.424C0.374,-0.457 0.372,-0.486 0.368,-0.512C0.364,-0.538 0.359,-0.561 0.352,-0.581C0.346,-0.601 0.337,-0.617 0.326,-0.63C0.316,-0.644 0.304,-0.653 0.29,-0.66C0.276,-0.667 0.26,-0.67 0.243,-0.67C0.222,-0.67 0.203,-0.665 0.186,-0.655C0.17,-0.644 0.157,-0.629 0.146,-0.608C0.135,-0.587 0.127,-0.562 0.121,-0.531C0.116,-0.5 0.113,-0.465 0.113,-0.424L0.113,-0.29C0.113,-0.258 0.115,-0.229 0.118,-0.203C0.122,-0.177 0.127,-0.154 0.134,-0.133C0.141,-0.113 0.15,-0.096 0.161,-0.083C0.171,-0.069 0.183,-0.059 0.197,-0.052C0.211,-0.045 0.226,-0.041 0.244,-0.041C0.265,-0.041 0.285,-0.047 0.301,-0.058C0.317,-0.069 0.331,-0.085 0.341,-0.106C0.352,-0.127 0.36,-0.153 0.365,-0.184C0.371,-0.215 0.374,-0.25 0.374,-0.29Z" style="fill:rgb(0,65,145);fill-rule:nonzero;"/>
                </g>
                <g transform="matrix(41.666667,0,0,41.666667,2408.794487,388.936985)">
                    <path d="M0.442,-0.051L0.442,-0L0.065,-0L0.065,-0.046L0.26,-0.31C0.285,-0.343 0.304,-0.372 0.318,-0.397C0.332,-0.422 0.343,-0.445 0.349,-0.465C0.355,-0.485 0.358,-0.505 0.358,-0.525C0.358,-0.553 0.354,-0.578 0.344,-0.6C0.335,-0.622 0.322,-0.639 0.304,-0.651C0.286,-0.664 0.264,-0.67 0.238,-0.67C0.21,-0.67 0.187,-0.663 0.167,-0.648C0.148,-0.634 0.133,-0.615 0.122,-0.59C0.112,-0.566 0.106,-0.538 0.106,-0.506L0.052,-0.506C0.052,-0.545 0.06,-0.581 0.074,-0.614C0.089,-0.646 0.11,-0.672 0.138,-0.691C0.165,-0.711 0.199,-0.721 0.238,-0.721C0.274,-0.721 0.305,-0.713 0.331,-0.698C0.357,-0.683 0.377,-0.661 0.392,-0.632C0.406,-0.604 0.413,-0.57 0.413,-0.53C0.413,-0.509 0.41,-0.487 0.404,-0.466C0.397,-0.444 0.389,-0.422 0.378,-0.401C0.367,-0.379 0.354,-0.358 0.34,-0.337C0.326,-0.315 0.311,-0.295 0.296,-0.274L0.131,-0.051L0.442,-0.051Z" style="fill:rgb(0,65,145);fill-rule:nonzero;"/>
                </g>
                <g transform="matrix(41.666667,0,0,41.666667,2429.037814,388.936985)">
                    <path d="M0.436,-0.711L0.436,-0.677L0.183,-0L0.126,-0L0.378,-0.66L0.042,-0.66L0.042,-0.711L0.436,-0.711Z" style="fill:rgb(0,65,145);fill-rule:nonzero;"/>
                </g>
            </g>
        </g>
    </g>
</svg>
