<?xml version="1.0" encoding="UTF-8" standalone="no"?>
<svg
   id="Nachhaltig_handeln"
   viewBox="0 0 427.92998 566.93"
   version="1.1"
   sodipodi:docname="bw-lions-logo.svg"
   inkscape:version="1.4.3 (0d15f75, 2025-12-25)"
   width="427.92999"
   height="566.92999"
   xmlns:inkscape="http://www.inkscape.org/namespaces/inkscape"
   xmlns:x="adobe:ns:meta/"
   xmlns:sodipodi="http://sodipodi.sourceforge.net/DTD/sodipodi-0.dtd"
   xmlns="http://www.w3.org/2000/svg"
   xmlns:svg="http://www.w3.org/2000/svg"
   xmlns:rdf="http://www.w3.org/1999/02/22-rdf-syntax-ns#"
   xmlns:cc="http://creativecommons.org/ns#"
   xmlns:dc="http://purl.org/dc/elements/1.1/"
   xmlns:xmp="http://ns.adobe.com/xap/1.0/"
   xmlns:xmpMM="http://ns.adobe.com/xap/1.0/mm/"
   xmlns:stEvt="http://ns.adobe.com/xap/1.0/sType/ResourceEvent#">
  <sodipodi:namedview
     id="namedview33"
     pagecolor="#ffffff"
     bordercolor="#000000"
     borderopacity="0.25"
     inkscape:showpageshadow="2"
     inkscape:pageopacity="0.0"
     inkscape:pagecheckerboard="0"
     inkscape:deskcolor="#d1d1d1"
     inkscape:zoom="1.0885716"
     inkscape:cx="-9.1863503"
     inkscape:cy="359.64562"
     inkscape:window-width="1818"
     inkscape:window-height="901"
     inkscape:window-x="-8"
     inkscape:window-y="-8"
     inkscape:window-maximized="1"
     inkscape:current-layer="Nachhaltig_handeln" />
  <title
     id="title1">Nachhaltig-handeln_Logo_Extern_Standard_rgb_pos</title>
  <desc
     id="desc1">Logo Nachhaltig handeln (Nachhaltigkeitsstrategie Baden-Württemberg). </desc>
  <metadata
     id="metadata1">
<?xpacket begin="﻿" id="W5M0MpCehiHzreSzNTczkc9d"?>    <x:xmpmeta
       x:xmptk="Adobe XMP Core 7.1-c000 79.4d2f597, 2021/09/01-20:51:22        ">
      <metadata>
        <rdf:RDF>
          <rdf:Description
             rdf:about="">
            <dc:description>
              <rdf:Alt>
                <rdf:li
                   xml:lang="x-default">Logo Nachhaltig handeln (Nachhaltigkeitsstrategie Baden-Württemberg). </rdf:li>
              </rdf:Alt>
            </dc:description>
            <dc:title>
              <rdf:Alt>
                <rdf:li
                   xml:lang="x-default">Nachhaltig-handeln_Logo_Extern_Standard_rgb_pos</rdf:li>
              </rdf:Alt>
            </dc:title>
            <xmp:MetadataDate>2025-01-22T09:37:32+01:00</xmp:MetadataDate>
            <xmpMM:InstanceID>xmp.iid:b07079f9-52e4-464b-87eb-5215945ef332</xmpMM:InstanceID>
            <xmpMM:DocumentID>xmp.did:b4923ef3-1120-47b6-9002-ccd4ba5722cc</xmpMM:DocumentID>
            <xmpMM:OriginalDocumentID>xmp.did:b4923ef3-1120-47b6-9002-ccd4ba5722cc</xmpMM:OriginalDocumentID>
            <xmpMM:History>
              <rdf:Seq>
                <rdf:li>
                  <rdf:Description>
                    <stEvt:action>saved</stEvt:action>
                    <stEvt:instanceID>xmp.iid:b4923ef3-1120-47b6-9002-ccd4ba5722cc</stEvt:instanceID>
                    <stEvt:when>2025-01-22T09:36:47+01:00</stEvt:when>
                    <stEvt:softwareAgent>Adobe Bridge 2023</stEvt:softwareAgent>
                    <stEvt:changed>/metadata</stEvt:changed>
                  </rdf:Description>
                </rdf:li>
                <rdf:li>
                  <rdf:Description>
                    <stEvt:action>saved</stEvt:action>
                    <stEvt:instanceID>xmp.iid:b07079f9-52e4-464b-87eb-5215945ef332</stEvt:instanceID>
                    <stEvt:when>2025-01-22T09:37:32+01:00</stEvt:when>
                    <stEvt:softwareAgent>Adobe Bridge 2023</stEvt:softwareAgent>
                    <stEvt:changed>/metadata</stEvt:changed>
                  </rdf:Description>
                </rdf:li>
              </rdf:Seq>
            </xmpMM:History>
          </rdf:Description>
          <cc:Work
             rdf:about="">
            <dc:title>Nachhaltig-handeln_Logo_Extern_Standard_rgb_pos</dc:title>
          </cc:Work>
        </rdf:RDF>
      </metadata>
    </x:xmpmeta>
<?xpacket end="w"?>  </metadata>
  <defs
     id="defs1">
    <style
       id="style1">
      .cls-1 {
        fill: #2a2623;
      }
    </style>
  </defs>
  <path
     class="cls-1"
     d="M 57.33,53.15 C 70.2,54.51 78.48,52.1 81.53,51.17 84.9,49.93 85.1,47.14 84.36,45.37 77.8,47.3 70.12,49.04 59.91,47.75 49.11,46.4 46.89,40.42 46.69,36.55 46.68,36.38 46.45,36.3 46.35,36.43 c -0.05,0.07 -0.25,0.4 -0.29,0.47 -0.25,0.41 -0.47,0.82 -0.66,1.24 -2.86,6.19 -0.09,13.74 11.93,15.01 z"
     id="path28" />
  <path
     class="cls-1"
     d="m 422.94,530.33 c -3.82,-3.83 -8.47,-7.19 -12.76,-9.88 -6.95,-4.36 -12.95,-6.95 -12.95,-6.95 -0.79,-7.42 -4.29,-19.86 -9.2,-31.08 -2.89,-6.62 -6.32,-12.82 -9.91,-17.3 11.73,-3.09 20.31,-15.24 19.35,-29.07 -1.2,-17.14 -17.43,-35.27 -55.92,-27.67 -14.01,2.77 -25.48,6.85 -36.48,11.34 -11.55,4.71 -22.59,9.88 -35.52,14.47 -13.31,4.73 -24.49,6.77 -33.18,6.04 -7.82,-0.66 -13.63,-3.58 -17.18,-8.81 -4.83,-7.24 2.19,-14.55 5.16,-16.59 5.41,-3.54 10.29,-9.58 7.41,-19.4 -5.19,0.9 -14.3,3.95 -21.55,9.67 -6,4.73 -10.73,11.28 -10.91,19.96 0.34,11.86 8.55,21.13 22.2,24.4 9.16,2.19 16.47,2.9 25.1,1.77 12.39,-1.62 27.53,-7.03 54.81,-17.25 25.49,-9.83 39.82,-14.05 50.81,-14.55 6.89,-0.31 12.46,0.84 18.65,3 3.87,1.35 6.66,3.4 8.52,5.79 2.21,2.84 3.1,6.18 2.89,9.4 -0.39,6.06 -4.63,11.75 -11.23,13.17 -1.52,0.33 -3.16,0.43 -4.91,0.26 -2.04,-0.19 -4.26,-0.61 -6.77,-1.08 -7.4,-1.39 -17.37,-3.25 -32.9,-1.54 -9.31,1.03 -20.62,3.34 -34.57,7.81 -29.11,9.33 -50.83,13.07 -67.6,13.71 -23.75,0.91 -37.57,-4.38 -48.35,-8.79 -1.06,-10.32 -3.55,-18.85 -6.6,-25.78 -4.94,-11.25 -11.37,-18.29 -15.59,-21.96 0,0 2.44,-1.51 3.66,-10.02 -6.07,-1.21 -14.65,2.21 -14.65,2.21 0,0 -15.93,-10.23 -37.47,-6.58 -8.22,1.44 -12.13,3.69 -14.39,7.41 -17.12,6.28 -18.51,7.36 -22.88,9.88 -2.84,1.78 -2.6,4.17 -2.6,4.77 0,1.38 0.72,2.23 1.03,2.61 0.45,0.52 0.87,1 0.87,1.96 0.05,4.98 -0.39,4.63 1.14,8.57 0.68,1.59 2.17,1.47 3.98,0.85 11.3,-4.21 19.97,-0.93 20.52,6.71 0.44,6.59 -5.7,11.32 -13.9,11.98 -1.83,0.11 -3.1,0.19 -3.81,0.22 -1.35,0.09 -2.25,0.21 -2.1,1.79 0.17,1.25 1.97,5.73 2.46,7.01 1.23,3.47 2.02,3.96 4.93,4.06 5.49,0.2 12.6,-1.17 14.88,-1.87 0,0 -0.24,6.96 1.93,16.44 -19.02,-6.85 -33.54,-8.98 -49.65,-8.4 -16.09,0.58 -26.78,3.88 -33.88,7.86 C 1.29,487.93 0,497.1 0,497.1 c 0.09,0.01 18.51,4.35 26.06,2.22 5.12,-1.46 8.63,-6.4 8.63,-6.4 0,0 12.16,2.5 28.15,10.98 7.82,4.15 16.56,9.73 25.24,17.15 0.32,0.27 20.42,-8.88 21.4,-9.24 2.48,-0.91 4.34,0.74 4.76,1.55 0.7,1.32 0.94,3.8 -1,5.09 -1.9,1.71 -15.37,7.65 -28.35,15.32 -8.43,4.99 -17.59,10.41 -25.47,15.22 -6.18,-0.79 -8.87,-1.03 -14.67,-0.97 -12.41,0.14 -20.57,10.98 -20.57,18.91 h 48.26 c 2.01,-0.73 22.19,-4.85 42.57,-8.92 14.81,-2.96 29.73,-5.91 37.85,-7.51 3.64,-0.72 5.89,-1.17 6.19,-1.23 1.08,-0.24 2.55,-0.42 3.87,-1.71 0.66,-0.65 1.29,-1.58 1.82,-2.95 0.38,-0.93 2.09,-5.89 2.09,-5.89 l 10.56,-1.02 c 14.09,-1.19 26.59,-4.03 37.81,-7.62 14.42,-4.61 26.72,-10.47 37.58,-15.67 13.23,-6.34 24.15,-11.58 33.62,-12 -1.52,9.36 0.68,16.64 2.17,23.81 1.42,6.83 2.2,13.56 -1.49,21.89 -27.95,0 -24.87,18.84 -24.87,18.84 h 48.47 c 0,0 3.41,-11.15 11.26,-23.43 3.61,-5.66 8.04,-11.55 13.73,-16.72 1.19,-1.06 1.08,-2.19 0.41,-3.09 -6.15,-7.63 -9.26,-23.01 -9.26,-23.01 -0.53,-1.97 1.85,-3.27 2.66,-3.4 0.85,-0.15 3.16,-0.17 3.63,2.05 0,0 1.08,10.66 11.18,19.94 6.39,5.86 14.14,10.47 21.87,14.11 9.3,4.38 18.57,7.35 25.41,9.37 7.81,2.31 8.69,4.92 8.69,5.7 -0.18,0 -2.97,0.13 -3.42,0.18 -3.96,0.43 -8.51,0.94 -13.8,5.97 -5.41,5.14 -4.27,12.33 -4.27,12.33 h 33.35 c 4.35,0 5.9,-2.56 7.41,-7.47 0.98,-3.15 4.92,-19.14 5.19,-20.23 1.3,-4.86 -0.06,-7.44 -1.74,-8.89 z M 92.55,412.57 c 5.03,-3 11.63,-3.77 17.06,-3.13 -0.59,9.82 -14.38,12.43 -17.06,3.13 z"
     id="path29" />
  <path
     class="cls-1"
     d="m 422.94,134.9 c -3.82,-3.83 -8.47,-7.19 -12.76,-9.88 -6.95,-4.36 -12.95,-6.95 -12.95,-6.95 -0.79,-7.42 -4.29,-19.86 -9.2,-31.08 -2.89,-6.62 -6.32,-12.82 -9.91,-17.3 11.73,-3.09 20.31,-15.24 19.35,-29.07 -1.2,-17.14 -17.43,-35.27 -55.92,-27.67 -14.01,2.77 -25.48,6.85 -36.48,11.34 -11.55,4.71 -22.59,9.88 -35.52,14.47 -13.31,4.73 -24.49,6.77 -33.18,6.04 -7.82,-0.66 -13.63,-3.58 -17.18,-8.81 -4.83,-7.24 2.19,-14.55 5.16,-16.59 5.41,-3.54 10.29,-9.58 7.41,-19.4 -5.19,0.9 -14.3,3.95 -21.55,9.67 -6,4.73 -10.73,11.28 -10.91,19.96 0.34,11.86 8.55,21.13 22.2,24.4 9.16,2.19 16.47,2.9 25.1,1.77 12.39,-1.62 27.53,-7.03 54.81,-17.24 25.49,-9.83 39.82,-14.05 50.81,-14.55 6.89,-0.31 12.46,0.84 18.65,3 3.87,1.35 6.66,3.4 8.52,5.79 2.21,2.84 3.1,6.18 2.89,9.4 -0.39,6.06 -4.63,11.75 -11.23,13.17 -1.52,0.33 -3.16,0.43 -4.91,0.26 -2.04,-0.19 -4.26,-0.61 -6.77,-1.08 -7.4,-1.39 -17.37,-3.25 -32.9,-1.54 -9.31,1.03 -20.62,3.34 -34.57,7.81 -29.11,9.33 -50.83,13.07 -67.6,13.71 -23.75,0.91 -37.57,-4.38 -48.35,-8.79 C 174.89,55.42 172.4,46.89 169.35,39.96 164.41,28.71 157.98,21.68 153.76,18 c 0,0 2.44,-1.51 3.66,-10.02 -6.07,-1.21 -14.65,2.2 -14.65,2.2 0,0 -15.93,-10.23 -37.47,-6.58 -8.22,1.44 -12.13,3.69 -14.39,7.41 -17.12,6.28 -18.51,7.36 -22.88,9.88 -2.84,1.78 -2.6,4.17 -2.6,4.77 0,1.38 0.72,2.23 1.03,2.61 0.45,0.52 0.87,1 0.87,1.96 0.05,4.98 -0.39,4.63 1.14,8.57 0.68,1.59 2.17,1.47 3.98,0.85 11.3,-4.21 19.97,-0.93 20.52,6.71 0.44,6.59 -5.7,11.32 -13.9,11.98 -1.83,0.11 -3.1,0.18 -3.81,0.22 -1.35,0.09 -2.25,0.21 -2.1,1.78 0.17,1.25 1.97,5.73 2.46,7.01 1.23,3.47 2.02,3.96 4.93,4.06 5.49,0.2 12.6,-1.17 14.88,-1.87 0,0 -0.24,6.96 1.93,16.44 C 78.34,79.13 63.82,77 47.71,77.58 31.62,78.16 20.93,81.46 13.83,85.44 1.29,92.49 0,101.67 0,101.67 c 0.09,0.01 18.51,4.35 26.06,2.22 5.12,-1.46 8.63,-6.4 8.63,-6.4 0,0 12.16,2.5 28.15,10.98 7.82,4.15 16.56,9.73 25.24,17.15 0.32,0.27 20.42,-8.88 21.4,-9.24 2.48,-0.91 4.34,0.74 4.76,1.55 0.7,1.32 0.94,3.8 -1,5.09 -1.9,1.71 -15.37,7.65 -28.35,15.32 -8.43,4.99 -17.59,10.41 -25.47,15.22 -6.18,-0.79 -8.87,-1.03 -14.67,-0.97 -12.41,0.14 -20.57,10.98 -20.57,18.91 h 48.26 c 2.01,-0.73 22.19,-4.85 42.57,-8.93 14.81,-2.96 29.73,-5.91 37.85,-7.51 3.64,-0.72 5.89,-1.17 6.19,-1.23 1.08,-0.24 2.55,-0.42 3.87,-1.72 0.66,-0.65 1.29,-1.58 1.82,-2.95 0.38,-0.93 2.09,-5.89 2.09,-5.89 l 10.56,-1.02 c 14.09,-1.19 26.59,-4.03 37.81,-7.62 14.42,-4.61 26.72,-10.47 37.58,-15.67 13.23,-6.34 24.15,-11.58 33.62,-12 -1.52,9.36 0.68,16.64 2.17,23.81 1.42,6.83 2.2,13.56 -1.49,21.89 -27.95,0 -24.87,18.84 -24.87,18.84 h 48.47 c 0,0 3.41,-11.15 11.26,-23.43 3.61,-5.66 8.04,-11.55 13.73,-16.72 1.19,-1.06 1.08,-2.19 0.41,-3.09 -6.15,-7.63 -9.26,-23.01 -9.26,-23.01 -0.53,-1.97 1.85,-3.27 2.66,-3.4 0.85,-0.15 3.16,-0.17 3.63,2.05 0,0 1.08,10.66 11.18,19.94 6.39,5.86 14.14,10.47 21.87,14.11 9.3,4.38 18.57,7.35 25.41,9.37 7.81,2.31 8.69,4.92 8.69,5.7 -0.18,0 -2.97,0.14 -3.42,0.18 -3.96,0.43 -8.51,0.94 -13.8,5.97 -5.41,5.14 -4.27,12.33 -4.27,12.33 h 33.35 c 4.35,0 5.9,-2.56 7.41,-7.47 0.98,-3.15 4.92,-19.14 5.19,-20.23 1.3,-4.86 -0.06,-7.44 -1.74,-8.89 z M 92.55,17.14 c 5.03,-3 11.63,-3.77 17.06,-3.13 -0.59,9.82 -14.38,12.43 -17.06,3.13 z"
     id="path30" />
  <path
     class="cls-1"
     d="m 81.53,248.89 c 3.37,-1.24 3.57,-4.03 2.83,-5.8 -6.56,1.93 -14.24,3.67 -24.45,2.38 -10.8,-1.35 -13.02,-7.33 -13.22,-11.2 -0.01,-0.17 -0.24,-0.25 -0.34,-0.12 -0.05,0.07 -0.25,0.4 -0.29,0.47 -0.25,0.4 -0.47,0.82 -0.66,1.24 -2.86,6.19 -0.09,13.74 11.93,15.01 12.87,1.36 21.15,-1.05 24.2,-1.98 z"
     id="path31" />
  <path
     class="cls-1"
     d="m 81.53,446.6 c 3.37,-1.24 3.57,-4.03 2.83,-5.8 -6.56,1.93 -14.24,3.67 -24.45,2.38 -10.8,-1.35 -13.02,-7.33 -13.22,-11.2 -0.01,-0.17 -0.24,-0.25 -0.34,-0.12 -0.05,0.07 -0.25,0.4 -0.29,0.47 -0.25,0.41 -0.47,0.82 -0.66,1.24 -2.86,6.19 -0.09,13.74 11.93,15.01 12.87,1.36 21.15,-1.05 24.2,-1.98 z"
     id="path32" />
  <path
     class="cls-1"
     d="m 422.94,332.62 c -3.82,-3.83 -8.47,-7.19 -12.76,-9.88 -6.95,-4.36 -12.95,-6.95 -12.95,-6.95 -0.79,-7.42 -4.29,-19.86 -9.2,-31.08 -2.89,-6.62 -6.32,-12.82 -9.91,-17.3 11.73,-3.09 20.31,-15.24 19.35,-29.07 -1.2,-17.14 -17.43,-35.27 -55.92,-27.67 -14.01,2.77 -25.48,6.85 -36.48,11.34 -11.55,4.71 -22.59,9.88 -35.52,14.47 -13.31,4.73 -24.49,6.77 -33.18,6.04 -7.82,-0.66 -13.63,-3.58 -17.18,-8.81 -4.83,-7.24 2.19,-14.55 5.16,-16.59 5.41,-3.54 10.29,-9.58 7.41,-19.4 -5.19,0.9 -14.3,3.95 -21.55,9.67 -6,4.73 -10.73,11.28 -10.91,19.96 0.34,11.86 8.55,21.13 22.2,24.4 9.16,2.19 16.47,2.9 25.1,1.77 12.39,-1.62 27.53,-7.03 54.81,-17.24 25.49,-9.83 39.82,-14.05 50.81,-14.55 6.89,-0.31 12.46,0.84 18.65,3 3.87,1.35 6.66,3.4 8.52,5.79 2.21,2.84 3.1,6.18 2.89,9.4 -0.39,6.06 -4.63,11.75 -11.23,13.17 -1.52,0.33 -3.16,0.43 -4.91,0.26 -2.04,-0.2 -4.26,-0.62 -6.77,-1.08 -7.4,-1.39 -17.37,-3.25 -32.9,-1.54 -9.31,1.03 -20.62,3.34 -34.57,7.81 -29.11,9.33 -50.83,13.07 -67.6,13.71 -23.75,0.91 -37.57,-4.38 -48.35,-8.79 -1.06,-10.32 -3.55,-18.85 -6.6,-25.78 -4.94,-11.25 -11.37,-18.29 -15.59,-21.96 0,0 2.44,-1.52 3.66,-10.02 -6.07,-1.21 -14.65,2.2 -14.65,2.2 0,0 -15.93,-10.23 -37.47,-6.58 -8.22,1.44 -12.13,3.69 -14.39,7.41 -17.12,6.28 -18.51,7.36 -22.88,9.88 -2.84,1.78 -2.6,4.17 -2.6,4.77 0,1.38 0.72,2.23 1.03,2.61 0.45,0.52 0.87,1 0.87,1.96 0.05,4.98 -0.39,4.63 1.14,8.57 0.68,1.59 2.17,1.47 3.98,0.85 11.3,-4.21 19.97,-0.93 20.52,6.71 0.44,6.59 -5.7,11.32 -13.9,11.98 -1.83,0.11 -3.1,0.19 -3.81,0.23 -1.35,0.09 -2.25,0.21 -2.1,1.78 0.17,1.25 1.97,5.73 2.46,7.01 1.23,3.47 2.02,3.96 4.93,4.06 5.49,0.19 12.6,-1.17 14.88,-1.88 0,0 -0.24,6.96 1.93,16.44 -19.02,-6.85 -33.54,-8.98 -49.65,-8.4 -16.09,0.58 -26.78,3.88 -33.88,7.86 C 1.29,290.21 0,299.38 0,299.38 c 0.09,0.01 18.51,4.35 26.06,2.22 5.12,-1.46 8.63,-6.4 8.63,-6.4 0,0 12.16,2.5 28.15,10.98 7.82,4.15 16.56,9.73 25.24,17.15 0.32,0.27 20.42,-8.88 21.4,-9.24 2.48,-0.91 4.34,0.74 4.76,1.55 0.7,1.32 0.94,3.8 -1,5.09 -1.9,1.71 -15.37,7.65 -28.35,15.32 -8.43,4.99 -17.59,10.41 -25.47,15.22 -6.18,-0.79 -8.87,-1.04 -14.67,-0.97 -12.41,0.14 -20.57,10.98 -20.57,18.91 h 48.26 c 2.01,-0.73 22.19,-4.85 42.57,-8.92 14.81,-2.96 29.73,-5.91 37.85,-7.51 3.64,-0.72 5.89,-1.17 6.19,-1.23 1.08,-0.24 2.55,-0.42 3.87,-1.72 0.66,-0.65 1.29,-1.58 1.82,-2.95 0.38,-0.93 2.09,-5.89 2.09,-5.89 l 10.56,-1.02 c 14.09,-1.19 26.59,-4.03 37.81,-7.62 14.42,-4.61 26.72,-10.47 37.58,-15.67 13.23,-6.34 24.15,-11.58 33.62,-12 -1.52,9.36 0.68,16.64 2.17,23.81 1.42,6.83 2.2,13.56 -1.49,21.89 -27.95,0 -24.87,18.84 -24.87,18.84 h 48.47 c 0,0 3.41,-11.15 11.26,-23.43 3.61,-5.66 8.04,-11.55 13.73,-16.72 1.19,-1.06 1.08,-2.19 0.41,-3.09 -6.15,-7.63 -9.26,-23.01 -9.26,-23.01 -0.53,-1.97 1.85,-3.27 2.66,-3.4 0.85,-0.15 3.16,-0.17 3.63,2.05 0,0 1.08,10.66 11.18,19.94 6.39,5.86 14.14,10.47 21.87,14.11 9.3,4.38 18.57,7.35 25.41,9.37 7.81,2.31 8.69,4.92 8.69,5.7 -0.18,0 -2.97,0.14 -3.42,0.18 -3.96,0.43 -8.51,0.94 -13.8,5.97 -5.41,5.14 -4.27,12.33 -4.27,12.33 h 33.35 c 4.35,0 5.9,-2.56 7.41,-7.47 0.98,-3.15 4.92,-19.14 5.19,-20.23 1.3,-4.86 -0.06,-7.44 -1.74,-8.89 z M 92.55,214.86 c 5.03,-3 11.63,-3.77 17.06,-3.13 -0.59,9.82 -14.38,12.43 -17.06,3.13 z"
     id="path33" />
</svg>
